<svg xmlns="http://www.w3.org/2000/svg" width="25" height="26" viewBox="0 0 25 26">
    <defs>
        <linearGradient id="3lzws7m69b" x1=".043%" x2="100.002%" y1="50.006%" y2="50.006%">
            <stop offset=".794%"/>
            <stop offset="46.83%"/>
            <stop offset="100%"/>
        </linearGradient>
        <filter id="veuoe086ya" color-interpolation-filters="auto">
            <feColorMatrix in="SourceGraphic" values="0 0 0 0 0.000000 0 0 0 0 1.000000 0 0 0 0 0.786112 0 0 0 1.000000 0"/>
        </filter>
    </defs>
    <g fill="none" fill-rule="evenodd" stroke-linecap="square">
        <g>
            <g>
                <g filter="url(#veuoe086ya)" transform="translate(-1011.000000, -812.000000) translate(405.000000, 74.000000) translate(0.000000, 23.857353)">
                    <g>
                        <path fill="url(#3lzws7m69b)" fill-rule="nonzero" d="M.301 2.738l.006.236C.37 8.74 2.654 14.17 6.746 18.259c4.09 4.088 9.52 6.376 15.285 6.438l.232.006v.294l-.382-.009c-5.791-.097-11.235-2.412-15.347-6.52C2.422 14.358.114 8.912.016 3.12H.013l-.006-.383h.294zm.18.094l.15.003c5.718.062 11.1 2.33 15.153 6.386 4.056 4.055 6.323 9.435 6.385 15.153l.003.15-.15-.003c-5.718-.062-11.1-2.33-15.153-6.386C2.813 14.082.546 8.7.481 2.982v-.15zm.297.297c.1 5.583 2.332 10.833 6.297 14.797 3.965 3.965 9.215 6.198 14.797 6.298-.1-5.583-2.332-10.833-6.297-14.798C11.613 5.462 6.363 3.23.778 3.13zM2.825.291l.07.006C14.36 1.474 23.532 10.644 24.706 22.11l.005.07-.29.03-.007-.07C23.254 10.814 14.193 1.752 2.866.59l-.07-.006.029-.294zm7.885 11.224c1.156 0 2.091.938 2.091 2.09 0 1.157-.935 2.092-2.09 2.092-1.157 0-2.092-.935-2.092-2.091 0-1.156.938-2.091 2.091-2.091z" transform="translate(618.502941, 727.502941) scale(1, -1) rotate(-270.000000) translate(-618.502941, -727.502941) translate(606.002941, 715.002941) translate(12.358824, 12.644118) scale(1, -1) translate(-12.358824, -12.644118)"/>
                    </g>
                </g>
            </g>
        </g>
    </g>
</svg>
