<?xml version="1.0" encoding="UTF-8"?>
<svg width="16px" height="13px" viewBox="0 0 16 13" version="1.1" xmlns="http://www.w3.org/2000/svg" xmlns:xlink="http://www.w3.org/1999/xlink">
    <title>icons/discord</title>
    <g id="Components" stroke="none" stroke-width="1" fill="none" fill-rule="evenodd">
        <g id="Assets" transform="translate(-705.000000, -1746.000000)">
            <g id="Group" transform="translate(704.000000, 1743.000000)">
                <rect id="ViewBox" x="0" y="0" width="18" height="18"></rect>
                <path d="M14.4667496,4.36427849 C13.4319582,3.89546584 12.3395417,3.5628744 11.2174051,3.375 C11.0638517,3.64663876 10.9249135,3.92611869 10.8011719,4.21227039 C9.60588062,4.03403107 8.3903473,4.03403107 7.19505603,4.21227039 C7.07124969,3.92614815 6.93231315,3.64667155 6.7788228,3.375 C5.6559674,3.56446094 4.56283179,3.89784192 3.5270007,4.36673023 C1.47061034,7.3774712 0.913155126,10.313434 1.19188273,13.2077172 L1.19188273,13.2077172 C2.39615653,14.0882096 3.74408236,14.7578398 5.17706814,15.1875 C5.49973377,14.7580517 5.78525271,14.3024584 6.03059402,13.8255565 C5.56460324,13.6533293 5.11483836,13.4408419 4.68650755,13.190555 C4.79923738,13.1096474 4.90948964,13.0262881 5.01602552,12.9453806 C7.53943419,14.1197047 10.4605101,14.1197047 12.9839188,12.9453806 C13.0916934,13.0324175 13.2019457,13.1157768 13.3134367,13.190555 C12.884278,13.4412474 12.4336908,13.6541418 11.9668727,13.8267824 C12.2119132,14.3034635 12.4974493,14.7586741 12.8203986,15.1875 C14.2546075,14.7595638 15.6035676,14.0902509 16.8080616,13.208943 L16.8080616,13.208943 C17.1351019,9.85250623 16.2493675,6.94351261 14.4667496,4.36427849 Z M6.38364899,11.4277514 C5.60692806,11.4277514 4.96523516,10.7302304 4.96523516,9.87212017 C4.96523516,9.01400996 5.58462985,8.31035959 6.38117141,8.31035959 C7.17771298,8.31035959 7.81445072,9.01400996 7.80082403,9.87212017 C7.78719735,10.7302304 7.1752354,11.4277514 6.38364899,11.4277514 Z M11.6162953,11.4277514 C10.8383356,11.4277514 10.1991203,10.7302304 10.1991203,9.87212017 C10.1991203,9.01400996 10.8185149,8.31035959 11.6162953,8.31035959 C12.4140757,8.31035959 13.0458582,9.01400996 13.0322315,9.87212017 C13.0186049,10.7302304 12.4078817,11.4277514 11.6162953,11.4277514 Z" id="Shape" fill="#D4FFF6" fill-rule="nonzero"></path>
            </g>
        </g>
    </g>
</svg>