<?xml version="1.0" encoding="utf-8"?>
<!-- Generator: Adobe Illustrator 25.2.1, SVG Export Plug-In . SVG Version: 6.00 Build 0)  -->
<svg version="1.1" id="Layer_1" xmlns="http://www.w3.org/2000/svg" xmlns:xlink="http://www.w3.org/1999/xlink" x="0px" y="0px"
	 viewBox="0 0 362.27 1726" style="enable-background:new 0 0 362.27 1726;" xml:space="preserve">
<style type="text/css">
	.st0{fill:#00B4FF;}
</style>
<path class="st0" d="M106.09,322.09c-12.85,0-23.3-10.45-23.3-23.3c0-12.84,10.45-23.29,23.3-23.29c11.38,0,21.04,8.13,22.95,19.34
	l0.28,1.66h121.09l0.59-0.94c1.13-1.81,3.07-2.88,5.18-2.88c3.37,0,6.12,2.74,6.12,6.12c0,3.37-2.74,6.12-6.12,6.12
	c-2.11,0-4.05-1.08-5.18-2.88l-0.59-0.94H129.32l-0.28,1.66C127.12,313.96,117.47,322.09,106.09,322.09z"/>
<path class="st0" d="M106.09,319.09c-11.19,0-20.3-9.1-20.3-20.3c0-11.19,9.1-20.29,20.3-20.29c9.92,0,18.33,7.08,20,16.85
	l0.59,3.45l-0.59,3.45C124.41,312.01,116,319.09,106.09,319.09z M256.18,301.91c-1.08,0-2.06-0.55-2.64-1.47l-1.03-1.64l1.03-1.64
	c0.58-0.92,1.56-1.47,2.64-1.47c1.72,0,3.12,1.4,3.12,3.12S257.9,301.91,256.18,301.91z"/>
<path class="st0" d="M66.87,249.42c-11.66,0-21.15-9.49-21.15-21.15s9.49-21.15,21.15-21.15c10.17,0,18.9,7.24,20.78,17.22
	l0.31,1.63h199.41l0.54-1.16c1.35-2.92,4.29-4.81,7.5-4.81c4.56,0,8.26,3.71,8.26,8.26s-3.71,8.26-8.26,8.26
	c-3.21,0-6.15-1.89-7.5-4.81l-0.54-1.16H87.95l-0.31,1.63C85.78,242.18,77.04,249.42,66.87,249.42z"/>
<path class="st0" d="M66.87,246.42c-10.01,0-18.15-8.14-18.15-18.15s8.14-18.15,18.15-18.15c8.72,0,16.22,6.21,17.83,14.77
	l0.63,3.37l-0.63,3.37C83.09,240.21,75.59,246.42,66.87,246.42z M295.39,233.54c-2.04,0-3.91-1.2-4.77-3.07l-1.01-2.2l1.02-2.2
	c0.86-1.86,2.73-3.06,4.77-3.06c2.9,0,5.26,2.36,5.26,5.26S298.3,233.54,295.39,233.54z"/>
<path class="st0" d="M42.45,176.75c-10.48,0-19-8.52-19-19s8.52-19,19-19c8.96,0,16.78,6.36,18.6,15.11l0.33,1.59h248.2l0.48-1.31
	c1.5-4.07,5.42-6.81,9.76-6.81c5.74,0,10.41,4.67,10.41,10.41c0,5.74-4.67,10.41-10.41,10.41c-4.33,0-8.25-2.74-9.76-6.81
	l-0.48-1.31H61.38l-0.33,1.59C59.23,170.39,51.41,176.75,42.45,176.75z"/>
<path class="st0" d="M42.45,173.75c-8.82,0-16-7.18-16-16s7.18-16,16-16c7.54,0,14.13,5.35,15.66,12.72l0.68,3.28l-0.68,3.28
	C56.58,168.4,49.99,173.75,42.45,173.75z M319.81,165.16c-3.08,0-5.87-1.95-6.94-4.85l-0.95-2.56l0.95-2.56
	c1.07-2.9,3.86-4.85,6.94-4.85c4.09,0,7.41,3.32,7.41,7.41C327.23,161.84,323.9,165.16,319.81,165.16z"/>
<path class="st0" d="M21.82,104.08c-9.29,0-16.85-7.56-16.85-16.85s7.56-16.85,16.85-16.85c7.87,0,14.61,5.35,16.4,13.01l0.36,1.55
	h289.44l0.43-1.41c1.63-5.3,6.46-8.85,12-8.85c6.92,0,12.56,5.63,12.56,12.56c0,6.92-5.63,12.56-12.56,12.56
	c-5.55,0-10.37-3.56-12-8.85l-0.43-1.41H38.57l-0.36,1.55C36.42,98.73,29.68,104.08,21.82,104.08z"/>
<path class="st0" d="M21.82,101.08c-7.64,0-13.85-6.21-13.85-13.85s6.21-13.85,13.85-13.85c6.46,0,12,4.4,13.47,10.69l0.74,3.16
	l-0.74,3.16C33.82,96.68,28.28,101.08,21.82,101.08z M340.45,96.79c-4.22,0-7.89-2.71-9.13-6.74l-0.87-2.82l0.87-2.82
	c1.24-4.03,4.91-6.74,9.13-6.74c5.27,0,9.56,4.29,9.56,9.56C350.01,92.5,345.72,96.79,340.45,96.79z"/>
<path class="st0" d="M145.3,394.76c-14.03,0-25.44-11.41-25.44-25.44s11.41-25.44,25.44-25.44c12.61,0,23.18,9.02,25.13,21.46
	l0.27,1.69h42.94l0.58-0.56c0.75-0.72,1.72-1.12,2.75-1.12c2.19,0,3.97,1.78,3.97,3.97c0,2.19-1.78,3.97-3.97,3.97
	c-1.03,0-2.01-0.4-2.75-1.11l-0.58-0.56H170.7l-0.27,1.69C168.48,385.73,157.91,394.76,145.3,394.76z"/>
<path class="st0" d="M145.3,391.76c-12.37,0-22.44-10.07-22.44-22.44s10.07-22.44,22.44-22.44c11.12,0,20.44,7.96,22.17,18.92
	l0.55,3.52l-0.55,3.52C165.74,383.8,156.42,391.76,145.3,391.76z M216.96,370.29c-0.25,0-0.48-0.09-0.67-0.27l-0.72-0.7l0.72-0.7
	c0.19-0.18,0.42-0.27,0.67-0.27c0.54,0,0.97,0.44,0.97,0.97S217.5,370.29,216.96,370.29z"/>
<path class="st0" d="M256.18,604.18c-11.38,0-21.04-8.13-22.95-19.34l-0.28-1.66H111.86l-0.59,0.94c-1.13,1.81-3.07,2.88-5.18,2.88
	c-3.37,0-6.12-2.74-6.12-6.12c0-3.37,2.74-6.12,6.12-6.12c2.12,0,4.05,1.08,5.18,2.88l0.59,0.94h121.09l0.29-1.66
	c1.92-11.2,11.57-19.34,22.95-19.34c12.84,0,23.29,10.45,23.29,23.3C279.48,593.73,269.02,604.18,256.18,604.18z"/>
<path class="st0" d="M256.18,601.18c-9.92,0-18.33-7.08-20-16.84l-0.59-3.46l0.59-3.45c1.67-9.76,10.08-16.84,20-16.84
	c11.19,0,20.29,9.1,20.29,20.3C276.48,592.07,267.37,601.18,256.18,601.18z M106.09,584c-1.72,0-3.12-1.4-3.12-3.12
	s1.4-3.12,3.12-3.12c1.07,0,2.06,0.55,2.64,1.47l1.03,1.64l-1.03,1.64C108.15,583.45,107.16,584,106.09,584z"/>
<path class="st0" d="M295.39,672.55c-10.17,0-18.9-7.24-20.78-17.22l-0.31-1.63H74.9l-0.54,1.16c-1.35,2.92-4.29,4.81-7.5,4.81
	c-4.56,0-8.26-3.71-8.26-8.26s3.71-8.26,8.26-8.26c3.21,0,6.15,1.89,7.5,4.81l0.54,1.16h199.41l0.31-1.63
	c1.87-9.98,10.61-17.22,20.78-17.22c11.66,0,21.15,9.49,21.15,21.15S307.06,672.55,295.39,672.55z"/>
<path class="st0" d="M295.39,669.55c-8.72,0-16.22-6.21-17.83-14.77l-0.63-3.37l0.63-3.38c1.61-8.56,9.1-14.78,17.83-14.78
	c10.01,0,18.15,8.14,18.15,18.15S305.4,669.55,295.39,669.55z M66.87,656.67c-2.9,0-5.26-2.36-5.26-5.26s2.36-5.26,5.26-5.26
	c2.04,0,3.91,1.2,4.77,3.07l1.02,2.2l-1.02,2.2C70.78,655.46,68.91,656.67,66.87,656.67z"/>
<path class="st0" d="M319.81,740.93c-8.96,0-16.78-6.36-18.6-15.11l-0.33-1.59H52.69l-0.48,1.31c-1.51,4.07-5.43,6.81-9.76,6.81
	c-5.74,0-10.41-4.67-10.41-10.41c0-5.74,4.67-10.41,10.41-10.41c4.33,0,8.25,2.74,9.76,6.81l0.48,1.31h248.19l0.33-1.59
	c1.82-8.76,9.64-15.11,18.6-15.11c10.48,0,19,8.52,19,19S330.29,740.93,319.81,740.93z"/>
<path class="st0" d="M319.81,737.93c-7.54,0-14.13-5.35-15.66-12.72l-0.68-3.28l0.68-3.28c1.53-7.37,8.12-12.72,15.66-12.72
	c8.82,0,16,7.18,16,16S328.64,737.93,319.81,737.93z M42.45,729.34c-4.09,0-7.41-3.32-7.41-7.41c0-4.09,3.32-7.41,7.41-7.41
	c3.08,0,5.87,1.95,6.94,4.85l0.95,2.56l-0.95,2.56C48.32,727.39,45.53,729.34,42.45,729.34z"/>
<path class="st0" d="M340.45,809.3c-7.87,0-14.61-5.35-16.4-13.01l-0.36-1.55H34.25l-0.44,1.41c-1.63,5.3-6.46,8.85-12,8.85
	c-6.92,0-12.56-5.63-12.56-12.56c0-6.92,5.63-12.56,12.56-12.56c5.55,0,10.37,3.56,12,8.85l0.44,1.41h289.44l0.36-1.55
	c1.79-7.66,8.53-13.01,16.4-13.01c9.29,0,16.85,7.56,16.85,16.85S349.74,809.3,340.45,809.3z"/>
<path class="st0" d="M340.45,806.3c-6.46,0-12-4.4-13.47-10.69l-0.74-3.16l0.74-3.16c1.47-6.3,7.01-10.7,13.47-10.7
	c7.64,0,13.85,6.21,13.85,13.85S348.09,806.3,340.45,806.3z M21.82,802.01c-5.27,0-9.56-4.29-9.56-9.56c0-5.27,4.29-9.56,9.56-9.56
	c4.22,0,7.89,2.71,9.14,6.74l0.87,2.82l-0.87,2.82C29.71,799.3,26.04,802.01,21.82,802.01z"/>
<path class="st0" d="M216.97,535.8c-12.61,0-23.18-9.02-25.13-21.46l-0.27-1.69h-42.93l-0.58,0.56c-0.75,0.72-1.72,1.12-2.75,1.12
	c-2.19,0-3.97-1.78-3.97-3.97c0-2.19,1.78-3.97,3.97-3.97c1.03,0,2.01,0.4,2.75,1.11l0.58,0.56h42.94l0.27-1.69
	c1.95-12.43,12.52-21.46,25.13-21.46c14.03,0,25.44,11.41,25.44,25.44S230.99,535.8,216.97,535.8z"/>
<path class="st0" d="M216.97,532.8c-11.12,0-20.44-7.96-22.17-18.92l-0.55-3.52l0.55-3.52c1.72-10.96,11.04-18.92,22.17-18.92
	c12.37,0,22.44,10.07,22.44,22.44S229.34,532.8,216.97,532.8z M145.3,511.33c-0.53,0-0.97-0.44-0.97-0.97s0.43-0.97,0.97-0.97
	c0.25,0,0.48,0.09,0.67,0.27l0.72,0.7l-0.72,0.69C145.78,511.23,145.55,511.33,145.3,511.33z"/>
<path class="st0" d="M181.13,467.43c-5.06,0-10.01-1.38-14.3-3.99c-8.32-5.05-13.28-13.88-13.28-23.6c0-9.72,4.97-18.54,13.28-23.6
	c4.3-2.61,9.24-3.99,14.3-3.99c5.06,0,10,1.38,14.3,3.99c8.32,5.05,13.28,13.87,13.28,23.6s-4.97,18.54-13.28,23.6
	C191.14,466.04,186.19,467.43,181.13,467.43z"/>
<path class="st0" d="M181.13,464.43c-4.51,0-8.92-1.23-12.75-3.56c-7.42-4.51-11.84-12.37-11.84-21.03
	c0-8.66,4.43-16.53,11.84-21.03c3.83-2.33,8.24-3.56,12.75-3.56c4.51,0,8.92,1.23,12.75,3.56c7.41,4.51,11.84,12.37,11.84,21.03
	c0,8.66-4.43,16.53-11.84,21.03C190.05,463.2,185.64,464.43,181.13,464.43z"/>
<path class="st0" d="M106.09,1168.35c-12.85,0-23.3-10.45-23.3-23.29s10.45-23.29,23.3-23.29c11.38,0,21.04,8.13,22.95,19.34
	l0.28,1.66h121.09l0.59-0.94c1.13-1.81,3.07-2.88,5.18-2.88c3.37,0,6.12,2.74,6.12,6.12s-2.74,6.12-6.12,6.12
	c-2.12,0-4.05-1.08-5.18-2.88l-0.59-0.94H129.32l-0.28,1.66C127.12,1160.22,117.47,1168.35,106.09,1168.35z"/>
<path class="st0" d="M106.09,1165.35c-11.19,0-20.3-9.1-20.3-20.29s9.1-20.29,20.3-20.29c9.92,0,18.33,7.08,20,16.84l0.59,3.45
	l-0.59,3.45C124.41,1158.27,116,1165.35,106.09,1165.35z M256.18,1148.17c-1.08,0-2.06-0.55-2.64-1.47l-1.03-1.64l1.03-1.64
	c0.58-0.93,1.56-1.48,2.64-1.48c1.72,0,3.12,1.4,3.12,3.12S257.9,1148.17,256.18,1148.17z"/>
<path class="st0" d="M66.87,1095.68c-11.66,0-21.15-9.49-21.15-21.15s9.49-21.15,21.15-21.15c10.17,0,18.9,7.24,20.78,17.22
	l0.31,1.63h199.41l0.54-1.16c1.35-2.92,4.29-4.81,7.5-4.81c4.56,0,8.26,3.71,8.26,8.26c0,4.56-3.71,8.26-8.26,8.26
	c-3.21,0-6.15-1.89-7.5-4.81l-0.54-1.16H87.95l-0.31,1.63C85.78,1088.44,77.04,1095.68,66.87,1095.68z"/>
<path class="st0" d="M66.87,1092.68c-10.01,0-18.15-8.14-18.15-18.15s8.14-18.15,18.15-18.15c8.72,0,16.22,6.21,17.83,14.77
	l0.63,3.37l-0.63,3.37C83.09,1086.47,75.59,1092.68,66.87,1092.68z M295.39,1079.8c-2.04,0-3.91-1.2-4.77-3.07l-1.01-2.2l1.02-2.2
	c0.86-1.86,2.73-3.06,4.77-3.06c2.9,0,5.26,2.36,5.26,5.26C300.66,1077.44,298.3,1079.8,295.39,1079.8z"/>
<path class="st0" d="M42.45,1023.01c-10.48,0-19-8.52-19-19c0-10.48,8.52-19,19-19c8.96,0,16.78,6.36,18.6,15.11l0.33,1.59h248.2
	l0.48-1.31c1.5-4.07,5.43-6.81,9.76-6.81c5.74,0,10.41,4.67,10.41,10.41c0,5.74-4.67,10.41-10.41,10.41c-4.33,0-8.25-2.74-9.76-6.81
	l-0.48-1.31H61.38l-0.33,1.59C59.23,1016.66,51.41,1023.01,42.45,1023.01z"/>
<path class="st0" d="M42.45,1020.01c-8.82,0-16-7.18-16-16c0-8.82,7.18-16,16-16c7.54,0,14.13,5.35,15.66,12.72l0.68,3.28
	l-0.68,3.28C56.58,1014.66,49.99,1020.01,42.45,1020.01z M319.81,1011.43c-3.08,0-5.87-1.95-6.94-4.85l-0.95-2.56l0.95-2.56
	c1.07-2.9,3.86-4.85,6.94-4.85c4.09,0,7.41,3.32,7.41,7.41S323.9,1011.43,319.81,1011.43z"/>
<path class="st0" d="M21.82,950.35c-9.29,0-16.85-7.56-16.85-16.85s7.56-16.85,16.85-16.85c7.87,0,14.61,5.35,16.4,13.01l0.36,1.55
	h289.44l0.43-1.41c1.63-5.29,6.46-8.85,12-8.85c6.92,0,12.56,5.63,12.56,12.56c0,6.93-5.63,12.56-12.56,12.56
	c-5.55,0-10.37-3.56-12-8.85l-0.43-1.41H38.57l-0.36,1.55C36.42,944.99,29.68,950.35,21.82,950.35z"/>
<path class="st0" d="M21.82,947.35c-7.64,0-13.85-6.21-13.85-13.85s6.21-13.85,13.85-13.85c6.46,0,12,4.4,13.47,10.69l0.74,3.16
	l-0.74,3.16C33.82,942.95,28.28,947.35,21.82,947.35z M340.45,943.05c-4.22,0-7.89-2.71-9.13-6.74l-0.87-2.82l0.87-2.82
	c1.24-4.03,4.91-6.74,9.13-6.74c5.27,0,9.56,4.29,9.56,9.56C350.01,938.76,345.72,943.05,340.45,943.05z"/>
<path class="st0" d="M145.3,1241.02c-14.03,0-25.44-11.41-25.44-25.44s11.41-25.44,25.44-25.44c12.61,0,23.18,9.03,25.13,21.46
	l0.27,1.69h42.94l0.58-0.56c0.75-0.72,1.72-1.11,2.75-1.11c2.19,0,3.97,1.78,3.97,3.97s-1.78,3.97-3.97,3.97
	c-1.03,0-2.01-0.4-2.75-1.11l-0.58-0.56H170.7l-0.27,1.69C168.48,1232,157.91,1241.02,145.3,1241.02z"/>
<path class="st0" d="M145.3,1238.02c-12.37,0-22.44-10.07-22.44-22.44s10.07-22.44,22.44-22.44c11.12,0,20.44,7.96,22.17,18.93
	l0.55,3.52l-0.55,3.52C165.74,1230.06,156.42,1238.02,145.3,1238.02z M216.96,1216.55c-0.25,0-0.48-0.09-0.67-0.27l-0.72-0.7
	l0.72-0.7c0.18-0.18,0.42-0.27,0.67-0.27c0.54,0,0.97,0.43,0.97,0.97C217.93,1216.11,217.5,1216.55,216.96,1216.55z"/>
<path class="st0" d="M181.13,1313.75c-2.34,0-4.66-0.29-6.9-0.87c-0.87-0.22-1.74-0.49-2.59-0.8c-0.84-0.31-1.67-0.66-2.48-1.05
	c-9.49-4.57-15.63-14.34-15.63-24.87c0-10.53,6.13-20.29,15.63-24.87c0.8-0.38,1.63-0.74,2.47-1.05c0.85-0.31,1.72-0.58,2.59-0.81
	c2.24-0.58,4.56-0.87,6.9-0.87s4.66,0.29,6.9,0.87c0.87,0.22,1.74,0.5,2.59,0.81c0.84,0.31,1.68,0.66,2.47,1.05
	c9.49,4.57,15.63,14.34,15.63,24.87c0,10.53-6.13,20.29-15.63,24.87c-0.8,0.39-1.64,0.74-2.47,1.05c-0.85,0.31-1.72,0.58-2.59,0.8
	C185.79,1313.46,183.47,1313.75,181.13,1313.75z"/>
<path class="st0" d="M181.13,1310.75c-2.09,0-4.15-0.26-6.15-0.77c-0.77-0.2-1.55-0.44-2.31-0.72c-0.75-0.27-1.49-0.59-2.2-0.93
	c-8.46-4.08-13.93-12.78-13.93-22.17c0-9.39,5.47-18.09,13.93-22.17c0.71-0.34,1.45-0.66,2.2-0.93c0.75-0.27,1.52-0.52,2.31-0.72
	c1.99-0.51,4.06-0.77,6.15-0.77s4.15,0.26,6.15,0.77c0.77,0.2,1.55,0.44,2.31,0.72c0.76,0.28,1.5,0.59,2.2,0.93
	c8.47,4.08,13.93,12.78,13.93,22.17s-5.47,18.09-13.93,22.17c-0.71,0.34-1.46,0.66-2.21,0.93c-0.75,0.28-1.53,0.52-2.3,0.71
	C185.29,1310.49,183.22,1310.75,181.13,1310.75z"/>
<path class="st0" d="M345.56,31.41c-6.65,0-12.49-4.49-14.2-10.92L330.97,19H31.3l-0.4,1.49c-1.71,6.43-7.55,10.92-14.19,10.92
	C8.6,31.41,2,24.81,2,16.71S8.6,2,16.71,2c6.65,0,12.49,4.49,14.19,10.92l0.4,1.49h299.67l0.39-1.49C333.07,6.49,338.91,2,345.56,2
	c8.11,0,14.71,6.6,14.71,14.71S353.67,31.41,345.56,31.41z"/>
<path class="st0" d="M345.56,28.41c-5.29,0-9.94-3.58-11.3-8.7l-0.8-3.01l0.8-3.01c1.36-5.12,6.01-8.69,11.3-8.69
	c6.45,0,11.71,5.25,11.71,11.71S352.02,28.41,345.56,28.41z M16.71,28.41C10.25,28.41,5,23.16,5,16.71S10.25,5,16.71,5
	C22,5,26.64,8.58,28,13.7l0.8,3.01L28,19.72C26.64,24.84,22,28.41,16.71,28.41z"/>
<path class="st0" d="M256.18,1450.5c-11.38,0-21.04-8.13-22.95-19.34l-0.28-1.66H111.86l-0.59,0.94c-1.13,1.81-3.07,2.88-5.18,2.88
	c-3.37,0-6.12-2.74-6.12-6.12s2.74-6.12,6.12-6.12c2.12,0,4.05,1.08,5.18,2.88l0.59,0.94h121.09l0.29-1.66
	c1.92-11.21,11.57-19.34,22.95-19.34c12.84,0,23.29,10.45,23.29,23.3C279.48,1440.05,269.02,1450.5,256.18,1450.5z"/>
<path class="st0" d="M256.18,1447.5c-9.92,0-18.33-7.08-20-16.84l-0.59-3.46l0.59-3.45c1.67-9.76,10.08-16.84,20-16.84
	c11.19,0,20.29,9.1,20.29,20.3C276.48,1438.4,267.37,1447.5,256.18,1447.5z M106.09,1430.32c-1.72,0-3.12-1.4-3.12-3.12
	s1.4-3.12,3.12-3.12c1.07,0,2.06,0.55,2.64,1.47l1.03,1.64l-1.03,1.64C108.15,1429.77,107.16,1430.32,106.09,1430.32z"/>
<path class="st0" d="M295.39,1518.88c-10.17,0-18.9-7.24-20.78-17.22l-0.31-1.63H74.9l-0.54,1.16c-1.35,2.92-4.29,4.81-7.5,4.81
	c-4.56,0-8.26-3.71-8.26-8.26c0-4.56,3.71-8.26,8.26-8.26c3.21,0,6.15,1.89,7.5,4.81l0.54,1.16h199.41l0.31-1.63
	c1.87-9.98,10.61-17.22,20.78-17.22c11.66,0,21.15,9.49,21.15,21.15S307.06,1518.88,295.39,1518.88z"/>
<path class="st0" d="M295.39,1515.88c-8.72,0-16.22-6.21-17.83-14.77l-0.63-3.37l0.63-3.38c1.61-8.56,9.1-14.78,17.83-14.78
	c10.01,0,18.15,8.14,18.15,18.15S305.4,1515.88,295.39,1515.88z M66.87,1502.99c-2.9,0-5.26-2.36-5.26-5.26
	c0-2.9,2.36-5.26,5.26-5.26c2.04,0,3.91,1.2,4.77,3.07l1.02,2.2l-1.02,2.2C70.78,1501.79,68.91,1502.99,66.87,1502.99z"/>
<path class="st0" d="M319.81,1587.25c-8.96,0-16.78-6.36-18.6-15.11l-0.33-1.59H52.69l-0.48,1.31c-1.51,4.07-5.43,6.81-9.76,6.81
	c-5.74,0-10.41-4.67-10.41-10.41s4.67-10.41,10.41-10.41c4.33,0,8.25,2.74,9.76,6.81l0.48,1.31h248.19l0.33-1.59
	c1.82-8.76,9.64-15.11,18.6-15.11c10.48,0,19,8.52,19,19C338.82,1578.73,330.29,1587.25,319.81,1587.25z"/>
<path class="st0" d="M319.81,1584.25c-7.54,0-14.13-5.35-15.66-12.72l-0.68-3.28l0.68-3.27c1.53-7.37,8.12-12.72,15.66-12.72
	c8.82,0,16,7.18,16,16C335.82,1577.07,328.64,1584.25,319.81,1584.25z M42.45,1575.66c-4.09,0-7.41-3.33-7.41-7.41
	s3.32-7.41,7.41-7.41c3.08,0,5.87,1.95,6.94,4.85l0.95,2.56l-0.95,2.56C48.32,1573.71,45.53,1575.66,42.45,1575.66z"/>
<path class="st0" d="M340.45,1655.62c-7.87,0-14.61-5.35-16.4-13.01l-0.36-1.55H34.25l-0.44,1.41c-1.63,5.29-6.46,8.85-12,8.85
	c-6.92,0-12.56-5.63-12.56-12.56c0-6.93,5.63-12.56,12.56-12.56c5.55,0,10.37,3.56,12,8.85l0.44,1.41h289.44l0.36-1.55
	c1.79-7.66,8.53-13.01,16.4-13.01c9.29,0,16.85,7.56,16.85,16.85S349.74,1655.62,340.45,1655.62z"/>
<path class="st0" d="M340.45,1652.62c-6.46,0-12-4.4-13.47-10.69l-0.74-3.16l0.74-3.16c1.47-6.3,7.01-10.69,13.47-10.69
	c7.64,0,13.85,6.21,13.85,13.85S348.09,1652.62,340.45,1652.62z M21.82,1648.33c-5.27,0-9.56-4.29-9.56-9.56
	c0-5.27,4.29-9.56,9.56-9.56c4.22,0,7.89,2.71,9.14,6.74l0.87,2.82l-0.87,2.82C29.71,1645.62,26.04,1648.33,21.82,1648.33z"/>
<path class="st0" d="M216.97,1382.13c-12.61,0-23.18-9.03-25.13-21.46l-0.27-1.69h-42.93l-0.58,0.56c-0.75,0.72-1.72,1.12-2.75,1.12
	c-2.19,0-3.97-1.78-3.97-3.97s1.78-3.97,3.97-3.97c1.03,0,2.01,0.4,2.75,1.11l0.58,0.56h42.94l0.27-1.69
	c1.95-12.43,12.52-21.46,25.13-21.46c14.03,0,25.44,11.41,25.44,25.44S230.99,1382.13,216.97,1382.13z"/>
<path class="st0" d="M216.97,1379.13c-11.12,0-20.44-7.96-22.17-18.93l-0.55-3.51l0.55-3.52c1.72-10.96,11.04-18.92,22.17-18.92
	c12.37,0,22.44,10.07,22.44,22.44S229.34,1379.13,216.97,1379.13z M145.3,1357.65c-0.53,0-0.97-0.43-0.97-0.97
	c0-0.54,0.43-0.97,0.97-0.97c0.25,0,0.48,0.09,0.67,0.27l0.72,0.7l-0.72,0.7C145.78,1357.56,145.55,1357.65,145.3,1357.65z"/>
<path class="st0" d="M345.56,877.68c-6.65,0-12.49-4.49-14.2-10.93l-0.39-1.49H31.3l-0.4,1.49c-1.71,6.43-7.55,10.93-14.19,10.93
	C8.6,877.68,2,871.08,2,862.97c0-8.11,6.6-14.71,14.71-14.71c6.65,0,12.48,4.49,14.19,10.92l0.4,1.49h299.68l0.39-1.49
	c1.71-6.43,7.55-10.92,14.2-10.92c8.11,0,14.71,6.6,14.71,14.71C360.27,871.08,353.67,877.68,345.56,877.68z"/>
<path class="st0" d="M345.56,874.68c-5.29,0-9.94-3.58-11.3-8.7l-0.8-3.01l0.8-3.01c1.36-5.12,6.01-8.69,11.3-8.69
	c6.45,0,11.71,5.25,11.71,11.71C357.27,869.42,352.02,874.68,345.56,874.68z M16.71,874.68c-6.46,0-11.71-5.25-11.71-11.71
	c0-6.45,5.25-11.71,11.71-11.71c5.29,0,9.93,3.58,11.29,8.69l0.8,3.01l-0.8,3.01C26.64,871.1,22,874.68,16.71,874.68z"/>
<path class="st0" d="M345.56,1724c-6.65,0-12.49-4.49-14.2-10.93l-0.39-1.49H31.3l-0.4,1.49c-1.71,6.43-7.55,10.93-14.19,10.93
	C8.6,1724,2,1717.4,2,1709.29c0-8.11,6.6-14.71,14.71-14.71c6.65,0,12.48,4.49,14.19,10.92l0.4,1.49h299.68l0.39-1.49
	c1.71-6.43,7.55-10.92,14.2-10.92c8.11,0,14.71,6.6,14.71,14.71C360.27,1717.4,353.67,1724,345.56,1724z"/>
<path class="st0" d="M345.56,1721c-5.29,0-9.94-3.58-11.3-8.7l-0.8-3.01l0.8-3.01c1.36-5.12,6.01-8.69,11.3-8.69
	c6.45,0,11.71,5.25,11.71,11.71C357.27,1715.75,352.02,1721,345.56,1721z M16.71,1721c-6.46,0-11.71-5.25-11.71-11.71
	c0-6.45,5.25-11.71,11.71-11.71c5.29,0,9.93,3.58,11.29,8.69l0.8,3.01l-0.8,3.01C26.64,1717.42,22,1721,16.71,1721z"/>
</svg>
