<?xml version="1.0" encoding="UTF-8"?>
<svg width="8px" height="16px" viewBox="0 0 8 16" version="1.1" xmlns="http://www.w3.org/2000/svg" xmlns:xlink="http://www.w3.org/1999/xlink">
    <title>logos/facebook</title>
    <g id="Components" stroke="none" stroke-width="1" fill="none" fill-rule="evenodd">
        <g id="Assets" transform="translate(-709.000000, -1892.000000)">
            <g id="Group" transform="translate(704.000000, 1891.000000)">
                <rect id="ViewBox" x="0" y="0" width="18" height="18"></rect>
                <path d="M10.2066817,3.80891884 C10.3681559,3.61060015 10.6945512,3.46866888 11.1564364,3.46866888 C11.5880949,3.46866888 12.10407,3.53468342 12.5924699,3.67688976 L13,1.39113617 C12.1608114,1.08636903 11.2935172,1 10.3981174,1 C9.50192232,1 8.79583716,1.14220633 8.22895397,1.48245628 C7.65862392,1.80757791 7.27840383,2.17835961 7.0631049,2.7166532 C6.84594988,3.19938455 6.73750499,4.0066874 6.73750499,5.02276129 L6.73750499,5.92193437 L5,5.92193437 L5,8.53253457 L6.73750499,8.53253457 L6.73750499,16.745844 C7.46692295,16.9185821 8.22895397,17 9.01484819,17 C9.3104865,17 9.61142783,17 9.90839192,16.9441627 L9.90839192,8.53253457 L12.2117195,8.53253457 L12.2117195,5.92193437 L9.90839192,5.92193437 L9.90839192,5.07887367 C9.90865698,4.43358143 9.9905873,4.03749418 10.2066817,3.80891884 Z" id="Path" fill="#00FFC8" fill-rule="nonzero"></path>
            </g>
        </g>
    </g>
</svg>