<?xml version="1.0" encoding="utf-8"?>
<!-- Generator: Adobe Illustrator 25.2.1, SVG Export Plug-In . SVG Version: 6.00 Build 0)  -->
<svg version="1.1" xmlns="http://www.w3.org/2000/svg" xmlns:xlink="http://www.w3.org/1999/xlink" x="0px" y="0px"
	 viewBox="0 0 457.7 82.7" style="enable-background:new 0 0 457.7 82.7;" xml:space="preserve">
<style type="text/css">
	.st0{fill:url(#SVGID_1_);}
</style>
<g id="Layer_2">
</g>
<g id="Layer_1">
	<linearGradient id="SVGID_1_" gradientUnits="userSpaceOnUse" x1="300.0175" y1="164.5751" x2="157.8203" y2="-81.7178">
		<stop  offset="0" style="stop-color:#FF0468"/>
		<stop  offset="1" style="stop-color:#F081FF"/>
		<stop  offset="1" style="stop-color:#FF0063"/>
	</linearGradient>
	<path class="st0" d="M65.5,41.4h15.3v12.2H63.4v6.3h7v4.2c0,2-0.1,3.7-0.3,5.3h-8.4c-0.1,0.7-0.2,1.4-0.3,2.1h16.8
		c-0.4,2.6-1.1,4.6-2,6.2H62.5c-0.2,0.2-0.3,0.4-0.4,0.6c-2,2.9-4.9,4.4-8.6,4.4H24.7c-4.4,0-8.2-0.6-11.3-1.7
		c-2.1-0.8-4-1.9-5.6-3.3h5c-0.8-0.7-1.5-1.4-2.1-2.2c-1-1.2-1.7-2.5-2.4-4h-5c-0.3-0.7-0.6-1.4-0.9-2.1h6.2
		c-0.4-1.2-0.8-2.4-1.1-3.7c-0.4-1.8-0.7-3.7-0.9-5.8H0.4c-0.2-2-0.3-4-0.4-6.3h2.7c0-0.7-0.1-1.5-0.1-2.3v-7.8H0v-12
		c0-2.1,0.1-4.1,0.2-6h1.5c0.1-2.3,0.4-4.3,0.7-6.2H1c0.1-0.7,0.2-1.4,0.3-2c0.6-2.7,1.5-5,2.6-7h9.7c0.5-1,1.1-1.9,1.8-2.8
		c1-1.3,2.3-2.5,3.7-3.4H9.4c1.2-0.9,2.5-1.6,4-2.2c3.1-1.1,6.9-1.7,11.3-1.7h36.5c0.8,0,2.7,0.4,2.7,3.5v0.4h6.6v6.2h-8.8v1.2
		c0,3.2-2,3.5-2.8,3.5H25.2h-8.8c-2.1,0-3.8,0.3-5.2,0.7c-1.2,0.5-2.2,1.2-3,2.2c-0.2,0.4-0.5,0.9-0.7,1.4h28.9
		c-0.4,0.8-0.7,1.8-0.9,3c-0.2,1-0.3,2-0.4,3.2H10c-0.1,1.3-0.1,2.7-0.1,4.3v11.6h4.9V53c0,0.2,0,0.4,0,0.6H7.9
		c0,2.5,0.1,4.6,0.4,6.3h7c0,0.2,0,0.4,0.1,0.6c0.3,1.9,0.9,3.4,1.6,4.4c0.8,1.1,1.7,1.8,3,2.2c1.3,0.5,3.1,0.7,5.2,0.7h6.1h21.9
		h6.1c1.2,0,2-0.3,2.5-1.1c0.4-0.6,0.9-1.9,0.9-5c0,0-0.1-0.7-0.1-1.8H44.8c0-1.6-0.1-4-0.1-6.3h14.4c0-3.1-0.1-5.9-0.1-5.9h-2.6
		H34.1c-0.8,0-2.7-0.4-2.7-3.6v-0.6h2.1v-2.1h-4.8v-4.9c0-3.2,2-3.6,2.8-3.6H62c1.3,0,3.5,0.6,3.5,4.4V41.4z M192.9,68.3
		c0-1.5-0.5-2.3-1.1-2.8h3.8c-0.3-0.4-0.7-0.6-1.1-0.7h-31c-0.9,0-1.8,0-2.6-0.1h-2.5c-2.1,0-3.9-0.3-5.2-0.7
		c-1.3-0.5-2.3-1.2-3.1-2.2c-0.4-0.7-0.8-1.5-1.1-2.5h-3c-0.2-0.5-0.4-1.2-0.5-1.8s-0.1-1.2-0.2-1.8c0,0,0.1-4.5,0.1-6.4h3
		c0-0.5,0-0.9,0-0.9h44.7c0.6,0,1.6-0.2,2.2-1.1h-2.9c0.3-0.5,0.5-1.2,0.5-2.2v-7.9c0-3.1-2-3.5-2.8-3.5l-49.6,0.1
		c-2.4,0.5-4.5,1.9-5.8,4.1c-0.5,0.8-0.8,1.6-1,2.5l-0.1,6.9h3v2h-7.8l-0.1,3.7l0.1,0.5c0,2.1,0.2,4,0.3,5.8h9.9
		c0.2,2.3,0.5,4.3,0.9,6.2h-5.1c0.8,3.8,2.2,6.9,4,9.4h4.6c0.1,0.1,0.2,0.4,0.4,0.6c0.4,0.5,0.8,0.9,1.3,1.4h-4.6
		c1.8,1.7,3.9,3.1,6.3,3.9c3.1,1.2,6.9,1.7,11.3,1.7h33c0.9-0.3,1.9-1.1,1.9-3.3v-2.3h3.4v-2h-3.5V68.3z M131,12.1
		c0.3,2.4,2,2.7,2.8,2.7l56.2,0.1c0.7,0,2.4-0.4,2.7-2.8h-5c0-0.2,0.1-0.4,0.1-0.7V5.9h4.9v-2h-4.9V3.5c0-3.1-2-3.5-2.8-3.5h-52.5
		c-0.9,0-2.8,0.4-2.8,3.6v0.3h6.2v2h-6.2v5.5c0,0.2,0,0.5,0.1,0.7H131z M321.1,4.8h4.2V3.7c0-3.2-1.9-3.5-2.7-3.5h-5.8
		c-0.8,0-2.8,0.3-2.8,3.5v1.1h-3.1V12h1.4v5h-1.4v7.2h2.2v18.5h-2.2v21.1c0,0.1,0,0.1,0,0.2h-0.6c0,0-0.1,0-0.3-0.3l-3.8-6.8h-0.6
		v6.9c0,0.1,0,0.1,0,0.2h-0.5c-0.1,0-0.2,0-0.3-0.3l-3.8-6.8h3l-6.6-11.8h2.2l-11.7-20.9h-4.7l-4.1-7.2H303l-2.8-5h-23.4l-2.6-4.5
		c-0.5-1.1-1-1.9-1.5-2.7h4.2c-0.2-0.3-0.4-0.6-0.6-0.9c-0.7-1-1.4-1.8-2.1-2.3c-0.8-0.6-1.8-1-2.8-1.2c-1-0.1-2.2-0.2-3.6-0.2h-4.2
		c-2.9,0-5.1,1-6.6,2.8c-0.3,0.5-0.6,1.1-0.9,1.8h-3.2c-0.6,1.7-1,4.1-1.1,7.2h1.5c0,0.4,0,0.7,0,1.1V17h-1.5v7.2h2.2v18.5h-2.2
		v21.4h3.4v11h-3.4v2.4h4.5v1.7c0,3.1,2,3.5,2.9,3.5h4.4c0.8,0,2.8-0.4,2.8-3.5v-1.7h-3.6v-2.4h3.6V56.9h-2.2V45.1h2.2v-26
		c0-0.1,0-0.2,0-0.2h0.5c0,0,0.1,0,0.3,0.3l2.9,5h2.1l10.4,18.5h2.1l1.4,2.4h-15.5l10.7,19h15.3l6.2,11h-4.1l0.1,0.3
		c0.9,1.6,1.7,2.8,2.4,3.7c0.7,1,1.4,1.7,2.2,2.2c0.8,0.6,1.7,0.9,2.7,1.1c0.9,0.2,2,0.3,3.4,0.3h4.3c2.9,0,5.1-1,6.5-2.9
		c0.5-0.6,0.8-1.4,1.1-2.3h-1.1c0.3-0.7,0.5-1.5,0.7-2.4h4c0.2-1.5,0.3-3.3,0.3-5.3v-5.7h-5.2v-7.2h3V45.1h2.2V24.2h-4.7V17h9.3v-5
		h-8.8V4.8z M456,36.8v2.4h1.7v12.1c0,5.6-0.4,10.4-1.3,14.3c-0.3,1.3-0.6,2.5-1,3.7h-3.3c-0.3,0.8-0.6,1.6-0.9,2.4h3.2
		c-0.7,1.4-1.4,2.6-2.3,3.8c-1,1.3-2.3,2.4-3.7,3.4h-2.1c-1.2,0.8-2.6,1.6-4.1,2.1c-3.1,1.1-6.9,1.7-11.3,1.7h-22.2
		c-4.4,0-8.2-0.6-11.3-1.7c-1.5-0.5-2.8-1.3-4.1-2.1h3.4c-1.4-1-2.7-2.1-3.7-3.5c-0.9-1.1-1.6-2.3-2.3-3.7h-3.3
		c-0.4-0.8-0.7-1.6-1-2.4h0.7c-0.4-1.2-0.8-2.4-1.1-3.7c-0.5-2.1-0.8-4.6-1.1-7.4h-0.6c-0.2-2.1-0.3-4.4-0.3-6.9V51h1.1V39.2H384
		v-2.4h3.7v-5.3c0-5,0.4-9.4,1.1-13.1h-3.7c0.1-0.4,0.2-0.8,0.2-1.1c0.6-2.3,1.3-4.3,2.2-6.1h1c0.6-1.4,1.4-2.6,2.2-3.7
		c0.4-0.5,0.8-0.9,1.2-1.3h5.5c1.8-1.9,4-3.3,6.5-4.3c3.1-1.1,6.9-1.7,11.3-1.7H433c4.4,0,8.2,0.6,11.3,1.7c3.2,1.2,5.8,3.1,7.8,5.6
		c0.9,1.1,1.6,2.3,2.2,3.7h-3.6c0.9,1.8,1.6,3.8,2.1,6.1c0.1,0.3,0.1,0.7,0.2,1.1h3.6c0.7,3.7,1.1,8.1,1.1,13.1v5.3H456z
		 M446.6,29.8c0-2.9-0.2-5.4-0.6-7.4c-0.3-1.6-0.7-3-1.4-4h-3.7c0-0.2-0.1-0.3-0.2-0.5c-0.8-1-1.7-1.7-3-2.2
		c-1.3-0.4-3.1-0.7-5.2-0.7h-3.6h-19.7h-3.6c-2.1,0-3.8,0.3-5.2,0.7c-1.3,0.5-2.2,1.2-3,2.2c-0.1,0.2-0.2,0.3-0.2,0.5h3.6
		c-0.7,1-1.1,2.3-1.4,4c-0.4,2-0.6,4.5-0.6,7.4V51h-7.1v2.1c0,1.9,0,3.6,0.2,5.1h7.2c0,0.8,0.1,1.6,0.3,2.3c0.3,1.8,0.9,3.4,1.6,4.4
		c0.8,1.1,1.7,1.8,3,2.2c1.3,0.5,3.1,0.7,5.2,0.7h0.7h22.6h0.7c2.1,0,3.8-0.2,5.2-0.7c1.2-0.4,2.2-1.1,3-2.2c0.7-1,1.3-2.6,1.6-4.4
		c0.1-0.7,0.2-1.5,0.3-2.3h3c0.2-1.5,0.3-3.2,0.3-5.1V51h-25.3V36.8h25.3V29.8z"/>
</g>
</svg>
