<?xml version="1.0" encoding="UTF-8"?>
<svg width="150px" height="150px" viewBox="22 25 150 150" version="1.1" xmlns="http://www.w3.org/2000/svg" xmlns:xlink="http://www.w3.org/1999/xlink">
    <title>Summon Button</title>
    <defs>         
        <linearGradient x1="0%" y1="0%"  id="linearGradient-6">
            <stop stop-color="#00A6FF" offset="0%"></stop>
            <stop stop-color="#00FF89" offset="100%"></stop>
        </linearGradient>
        <path d="M88.337512,55.1749903 L88.3356695,55.172248 C88.1104714,55.5547102 87.2718477,56.0082385 85.6007221,56.9108026 C84.959481,57.254931 84.2067999,57.6615487 82.9697854,58.3608331 L82.9647334,58.3608331 L77.473977,61.4736842 L77.4735015,61.4736842 L71.9827451,58.3608331 L71.9767422,58.3608331 C70.7615402,57.6725179 69.9921579,57.2558646 69.3509169,56.9112694 C67.6728374,56.0068966 66.8314202,55.5533099 66.6122845,55.1795413 L66.6122845,55.172248 C66.3870864,54.7889106 66.4051545,53.8512803 66.4465211,51.9805122 C66.4585863,51.4120993 66.473445,45.7502006 66.4817659,43.112291 C66.4836678,42.6833266 66.6991186,42.3168514 67.0780148,42.1017274 L77.473977,36.2105263 L87.8694637,42.1017274 C88.2483599,42.3168514 88.4638107,42.6833266 88.4670797,43.112291 C88.4740335,45.7588359 88.4888922,51.4116326 88.5009574,51.9782367 C88.541373,53.8453289 88.5613431,54.7866351 88.337512,55.1749903 Z M81.9203577,68.295015 L83.1700354,69.0106193 L83.1700354,69.0114978 C84.295074,69.6594012 85.0231334,70.0606292 85.6328325,70.3932778 C87.2915192,71.3010335 88.1208625,71.7567269 88.3381595,72.1314837 L88.3381595,72.1388043 C88.5609725,72.5226386 88.5412556,73.4647134 88.5013523,75.3438264 L88.4912591,75.8009253 C88.4843934,76.1930172 88.1639346,76.5092091 87.7701241,76.5092091 L67.4576966,76.5092091 C67.0647663,76.5092091 66.7429579,76.1930172 66.7356227,75.8009253 L66.7264684,75.3438264 C66.7250601,75.284383 66.6668482,71.9704302 66.8901307,72.1388043 C67.1129437,71.7549114 67.9404092,71.2996866 69.5908218,70.3946833 C70.2221157,70.0492091 70.966195,69.6420074 72.1865908,68.9387602 L72.1925176,68.9387602 L75.5318378,67.0148451 C75.7189139,66.9050359 75.8261834,66.7201465 75.8261834,66.5037493 C75.8252445,66.2891675 75.7170948,66.1033997 75.5295492,65.995406 L73.0883469,64.5990434 C72.9012708,64.4928653 72.6876708,64.4928653 72.5015335,64.6003904 L70.3834894,65.8206484 L70.3853085,65.8229324 C69.5999761,66.2758733 68.6491624,66.7975108 67.851507,67.2344634 C65.6128727,68.4601679 64.491531,69.0778518 63.76488,70.3333659 L63.76488,70.3410965 C63.0414565,71.592921 63.0671002,72.8685814 63.1203242,75.4142799 C63.1335862,76.0612462 63.1510145,76.8248738 63.1510145,78.3159945 C63.1510145,79.8057681 63.1335862,80.5703327 63.1203242,81.2168305 C63.0671002,83.7680342 63.0405176,85.0450416 63.76488,86.2973346 L63.767638,86.2973346 C64.5011547,87.5591737 65.6206773,88.1745735 67.8542063,89.3989896 C68.6501013,89.8331897 69.5816676,90.3456325 70.3853085,90.806831 L70.3834894,90.8099935 L74.0047734,92.8982417 L70.3834894,94.9864314 L70.3853085,94.9864314 C69.5999761,95.4407778 68.6491624,95.9618882 67.851507,96.3997778 C65.6128727,97.6236669 64.491531,98.2404137 63.76488,99.4977433 L63.76488,99.5045954 C63.0414565,100.758235 63.0671002,102.033896 63.1203242,104.579594 C63.1276593,104.941057 63.1368136,109.054362 63.1427404,112 L59.3834966,109.832631 L59.3862546,109.830815 L41.1578947,99.3252697 L41.1578947,78.3159945 L41.1578947,57.3044937 L59.3862546,46.8007639 L59.3834966,46.7984798 L63.1427404,44.6315789 C63.1368136,47.5365145 63.1276593,51.6858955 63.1203242,52.0533316 C63.0671002,54.6045352 63.0405176,55.8806056 63.76488,57.1338356 L63.767638,57.1328986 C64.5011547,58.3952648 65.6206773,59.0101961 67.8542063,60.2345537 C68.6501013,60.6696908 69.5816676,61.181665 70.3853085,61.6442691 L70.3834894,61.6451476 C74.2358018,63.8665138 78.0702751,66.0768698 81.9203577,68.295015 Z M82.9648123,98.2712135 L82.9698642,98.2712135 C84.1850652,98.9599244 84.9558733,99.37657 85.5956874,99.7202253 C87.2756675,100.625515 88.1156575,101.07816 88.335744,101.451921 L88.335744,101.458339 C88.5614174,101.84167 88.5414474,102.780216 88.5010318,104.650891 C88.4889666,105.211125 88.4741079,110.787677 88.4671541,113.518949 C88.4638852,113.946972 88.2484345,114.315307 87.871381,114.528618 L77.4740602,120.421053 L67.0781064,114.528618 C66.6992104,114.315307 66.4828088,113.946972 66.4804909,113.518949 C66.4725861,110.787677 66.4586784,105.212467 66.4466131,104.6541 C66.4052466,102.787043 66.3871785,101.844879 66.6100584,101.456939 L66.6123764,101.458339 C66.8380498,101.076759 67.6761379,100.622306 69.3477377,99.7202253 C69.9871357,99.37657 70.7407672,98.9699598 71.9768298,98.2712135 L71.9828327,98.2712135 L77.4740602,95.1578947 L82.9648123,98.2712135 Z M117.115455,54.6477216 L98.0008364,43.5772696 L97.9925603,43.5772696 L78.8765328,32.5086425 L78.0002641,32 L77.1225868,32.5086425 L58.0074984,43.5772696 L57.9996918,43.5772696 L38.8836643,54.6477216 L38,55.1587189 L38,56.1774169 L38,78.317379 L38,100.456929 L38,101.473802 L38.8836643,101.987095 L57.9996918,113.056134 L58.0074984,113.056134 L77.1225868,124.124761 L78.0002641,124.631579 L78.8765328,124.124761 L97.9925603,113.056134 L98.0008364,113.056134 L117.115455,101.987095 L118,101.473802 L118,100.456929 L118,80.2601109 L118,76.4940956 L97.1717004,76.4940956 L97.1717004,80.1142294 L114.465871,80.2601109 L114.465871,99.4363471 L96.2321578,109.996744 L96.2339773,109.998569 L92.4756306,112.177254 C92.4806785,109.216236 92.4903046,105.078276 92.497172,104.714926 C92.5503503,102.150815 92.5769982,100.868553 91.8519884,99.6097212 L91.8487602,99.6097212 C91.1160026,98.341235 89.9970858,97.722622 87.7630086,96.4918719 L87.6965064,96.4569027 L87.689639,96.4720914 L86.8651399,95.9983591 L86.8637899,95.9970051 L86.8238768,95.9753996 C86.28505,95.6750414 85.7334274,95.3650285 85.2312854,95.074855 L85.233105,95.074855 L82.2676203,93.356067 L72.9826591,88.020913 L73.00197,87.9891817 L72.5773063,87.7422193 L72.5713781,87.7422193 C71.371285,87.048664 70.6114687,86.6287395 69.9782004,86.2801074 C69.7108413,86.1320477 67.2736182,84.8479019 67.2736182,84.5245842 C67.0512201,84.1396289 67.0690636,83.1926354 67.1099158,81.3037112 L67.1190724,80.8433426 C67.1264093,80.4500866 67.4482968,80.1331858 67.8413234,80.1331858 L88.1587353,80.1331858 C88.5526424,80.1331858 88.8731798,80.4500866 88.8800472,80.8433426 L88.8901429,81.3037112 C88.930056,83.1857475 88.9497777,84.134566 88.7287296,84.5278221 L88.72691,84.5245842 C88.5045119,84.9113645 87.676315,85.3680831 86.025967,86.2787534 C85.3926987,86.6269145 84.6493759,87.0353003 83.4277415,87.7422193 L83.4227524,87.7422193 L80.0481584,89.6983149 C79.8606255,89.8064014 79.7542688,89.9930803 79.7542688,90.2097243 C79.7542688,90.4268394 79.8638538,90.6135771 80.0500366,90.7216048 L82.4936576,92.1239629 C82.6798404,92.2325204 82.8926125,92.2325204 83.0787954,92.1239629 L85.233105,90.8766112 L85.2312854,90.8734322 C86.0140518,90.4198926 86.9669183,89.8947074 87.7648282,89.4563564 C90.0035423,88.2223684 91.1256287,87.6024014 91.8519884,86.340391 L91.8519884,86.3353281 C92.5769982,85.0746717 92.5503503,83.7909968 92.497172,81.2333608 C92.4839067,80.5797786 92.4673545,79.814931 92.4673545,78.317379 C92.4673545,76.8180609 92.4839067,76.0499753 92.497172,75.400102 C92.5503503,72.8350483 92.5769982,71.5518444 91.8519884,70.2930718 L91.8487602,70.2930718 C91.1160026,69.0245856 89.9970858,68.4059726 87.7630086,67.1756935 C86.9650988,66.7387554 86.0342431,66.2240492 85.2312854,65.7590887 L85.233105,65.7567927 L81.6091128,63.6585833 L85.233105,61.5594909 L85.2312854,61.5586078 C86.0140518,61.1023602 86.9669183,60.5789411 87.7648282,60.139707 C90.0035423,58.906661 91.1256287,58.2866351 91.8519884,57.0246247 L91.8519884,57.0177368 C92.5769982,55.7574925 92.5503503,54.4743474 92.497172,51.9161816 C92.4903046,51.5478278 92.4806785,47.3794903 92.4756306,44.4575626 L96.2339773,46.6353063 L96.2321578,46.6376022 L114.465871,57.1961738 L114.465871,63.815768 L118,63.815768 L118,56.1774169 L118,55.1587189 L117.115455,54.6477216 Z" id="path-7"></path>
        <filter x="-38.1%" y="-33.0%" width="176.2%" height="166.0%" filterUnits="objectBoundingBox" id="filter-8">
            <feMorphology radius="0.5" operator="dilate" in="SourceAlpha" result="shadowSpreadOuter1"></feMorphology>
            <feOffset dx="0" dy="0" in="shadowSpreadOuter1" result="shadowOffsetOuter1"></feOffset>
            <feMorphology radius="1" operator="erode" in="SourceAlpha" result="shadowInner"></feMorphology>
            <feOffset dx="0" dy="0" in="shadowInner" result="shadowInner"></feOffset>
            <feComposite in="shadowOffsetOuter1" in2="shadowInner" operator="out" result="shadowOffsetOuter1"></feComposite>
            <feGaussianBlur stdDeviation="10" in="shadowOffsetOuter1" result="shadowBlurOuter1"></feGaussianBlur>
            <feColorMatrix values="0 0 0 0 0   0 0 0 0 1   0 0 0 0 0.786112325  0 0 0 1 0" type="matrix" in="shadowBlurOuter1"></feColorMatrix>
        </filter>
    </defs>
    <g id="POC" stroke="none" stroke-width="1" fill="none" fill-rule="evenodd">
        <g id="POC11---State-1" transform="translate(-621.000000, -734.000000)">
            <g id="Terminal-Window" transform="translate(252.000000, 629.000000)">
                <g id="Bg" transform="translate(7.000000, 9.000000)">
                    <g id="Summon-Button" transform="translate(383.000000, 117.000000)">
                        <g id="Oval-Copy">
                            <use fill="black" fill-opacity="1" filter="url(#filter-3)" xlink:href="#path-2"></use>
                            <use stroke="url(#linearGradient-1)" stroke-width="1" xlink:href="#path-2"></use>
                        </g>
                        <g id="Oval-Copy-2" opacity="0.5">
                            <use fill="black" fill-opacity="1" filter="url(#filter-5)" xlink:href="#path-4"></use>
                            <use stroke="url(#linearGradient-1)" stroke-width="1" xlink:href="#path-4"></use>
                        </g>
                        <g id="Stroke-1">
                            <use fill="black" fill-opacity="1" filter="url(#filter-8)" xlink:href="#path-7"></use>
                            <use stroke="url(#linearGradient-6)" stroke-width="1" xlink:href="#path-7"></use>
                        </g>
                    </g>
                </g>
            </g>
        </g>
    </g>
</svg>