<?xml version="1.0" encoding="UTF-8"?>
<svg width="534px" height="85px" viewBox="0 0 534 85" version="1.1" xmlns="http://www.w3.org/2000/svg" xmlns:xlink="http://www.w3.org/1999/xlink">
    <title>geno-scanlines</title>
    <g id="Marketing---MVP-Onboarding" stroke="none" stroke-width="1" fill="none" fill-rule="evenodd" opacity="0.2">
        <g id="1desktop" transform="translate(-436.000000, -553.000000)" fill="#00FFC8" fill-rule="nonzero">
            <g id="Group" transform="translate(436.000000, 553.000000)">
                <path d="M76.6,4.1 L92.8,4.1 L92.8,11.7 L76.8,11.7 L74.3,11.7 L74.3,12.1 C74.3,16.1 71.7,16.4 70.8,16.4 L28.3,16.4 C26.3,16.4 24.7,16.6 23.4,17.1 C22.3,17.5 21.4,18.1 20.7,19 C20.7,19.1 20.6,19.2 20.6,19.3 L22.1,19.3 L37.7,19.3 L37.3,20.2 C36.9,21.1 36.6,22.1 36.4,23.1 C36.2,24 36.1,25.1 36,26.2 L36,26.9 L23.8,26.9 L22.6,26.9 C22.6,28 22.5,29.2 22.5,30.5 L22.5,41.4 L23.8,41.4 L34.3,41.4 L34.3,44.9 L31,44.9 L30.1,44.9 L30.1,55 L22.1,55 L20.5,55 C20.5,56.9 20.7,58.5 20.8,59.9 L24.8,59.9 L34,59.9 L34.1,61.1 C34.5,62.8 35,64.3 35.7,65.2 C36.4,66.2 37.2,66.8 38.3,67.2 C39.6,67.6 41.3,67.8 43.3,67.8 L71.3,67.8 C72.5,67.8 72.9,67.4 73.2,67 C73.4,66.6 73.9,65.4 73.9,62.4 L73.9,61.3 L60.8,61.3 L60.7,53.6 L70.3,53.6 C70.3,51.7 70.3,50 70.3,49.1 L46.1,49.1 C45.3,49.1 42.7,48.8 42.7,44.8 L42.7,43.5 L44.8,43.5 L44.8,42.8 L35.1,42.8 L35.1,37.2 C35.1,33.2 37.7,32.9 38.6,32.9 L73.9,32.9 C75.2,32.9 78.1,33.4 78.1,38 L78.1,41.4 L80.2,41.4 L87.8,41.4 L87.8,44.9 L85.7,44.9 L85.7,55 L78.1,55 L76,55 L76,59.9 L89.2,59.9 L89.2,64.8 C89.2,66.7 89.1,68.5 88.9,70.2 L88.9,70.8 L74.5,70.8 L74.2,70.8 C74.2,71 74.2,71.2 74.2,71.5 L76.4,71.5 L90.3,71.5 L90.2,72.3 C89.8,75 89.1,77.1 88.1,78.7 L87.9,79.1 L76.4,79.1 L74.8,79.1 C74.8,79.2 74.7,79.3 74.6,79.4 C72.5,82.5 69.4,84.1 65.5,84.1 L31.2,84.1 C26.8,84.1 22.9,83.5 19.7,82.3 C17.6,81.6 15.6,80.4 13.9,78.9 L12.5,77.7 L23,77.7 C22.7,77.3 22.4,77 22.1,76.6 C21.2,75.5 20.5,74.3 19.8,72.9 L1.4,72.9 L1.2,72.5 C0.9,71.8 0.6,71.1 0.3,70.3 L0,69.4 L19.6,69.4 C19.2,68.4 19,67.4 18.8,66.5 C18.4,65 18.1,63.2 17.9,61.3 L4.8,61.3 L4.7,60.6 C4.5,58.7 4.4,56.6 4.3,54.4 L4.3,53.6 L13.9,53.6 C13.9,53.1 13.9,52.6 13.9,52 L13.9,44.9 L0.7,44.9 L0.7,41.4 L6.3,41.4 L6.3,32.2 C6.3,30.3 6.4,28.3 6.5,26.1 L6.6,25.5 L13,25.5 C13.1,23.8 13.3,22.1 13.5,20.6 L3.3,20.6 L3.5,19.4 C3.6,18.9 3.7,18.3 3.8,17.8 C4.4,15.2 5.3,12.8 6.5,10.6 L6.7,10.3 L25.1,10.3 C25.7,9.3 26.2,8.5 26.8,7.8 C27.4,7 28.2,6.2 29,5.4 L12.6,5.4 L14.4,4.2 C15.7,3.3 17.1,2.5 18.6,2 C21.8,0.8 25.6,0.2 30.1,0.2 L73.1,0.2 C73.9,0.2 76.4,0.5 76.6,4.1 Z M72.8,70.8 L21.5,70.8 L20.6,70.8 L2,70.8 C2.1,71 2.2,71.2 2.3,71.5 L20.2,71.5 L20.7,71.5 L72.7,71.5 C72.8,71.2 72.8,71 72.8,70.8 Z M21.1,42.8 L7.7,42.8 L7,42.8 L2.1,42.8 L2.1,43.5 L14.6,43.5 L15.3,43.5 L28.7,43.5 L31,43.5 L32.9,43.5 L32.9,42.8 L23.8,42.8 L21.1,42.8 Z M72.9,11.7 L26,11.7 L25.6,11.7 L7.5,11.7 C6.5,13.6 5.7,15.8 5.2,18.1 C5.1,18.5 5,18.9 4.9,19.3 L14.4,19.3 L15.2,19.3 L19,19.3 C19.2,18.9 19.4,18.5 19.6,18.2 C20.4,17.1 21.5,16.3 22.9,15.8 C24.4,15.3 26.2,15 28.3,15 L70.8,15 C71.8,15 72.9,14.5 72.9,12.1 L72.9,11.7 Z M19.1,55 L15.3,55 L14.6,55 L5.7,55 C5.8,56.8 5.9,58.4 6,59.9 L18.5,59.9 L19.2,59.9 L19.4,59.9 C19.3,58.5 19.2,56.8 19.1,55 Z M21.3,26.9 L14.3,26.9 L13.6,26.9 L7.9,26.9 C7.8,28.7 7.7,30.5 7.7,32.2 L7.7,41.4 L21.1,41.4 L21.1,30.5 C21.1,29.2 21.2,28 21.3,26.9 Z M18.4,20.6 L15,20.6 C14.7,22.1 14.5,23.8 14.4,25.5 L21.3,25.5 L23.8,25.5 L34.7,25.5 C34.8,24.5 34.9,23.7 35,22.9 C35.2,22.1 35.4,21.3 35.6,20.6 L22.1,20.6 L18.4,20.6 L18.4,20.6 Z M28.7,44.9 L15.3,44.9 L15.3,52 C15.3,52.6 15.3,53.1 15.3,53.6 L19.1,53.6 L22.1,53.6 L28.7,53.6 L28.7,44.9 L28.7,44.9 Z M73.1,79.1 L26.6,79.1 L24.8,79.1 L16.4,79.1 C17.6,79.9 18.8,80.6 20.2,81 C23.2,82.1 26.9,82.7 31.2,82.7 L65.5,82.7 C68.7,82.7 71.3,81.5 73.1,79.1 Z M31,4.1 L33.2,4.1 L75.2,4.1 C75.1,2.1 74,1.6 73.1,1.6 L30.1,1.6 C25.8,1.6 22.1,2.2 19.1,3.3 C18.5,3.5 17.9,3.8 17.3,4.1 L31,4.1 Z M19.6,61.3 L19.3,61.3 C19.5,63.1 19.8,64.8 20.1,66.2 C20.4,67.2 20.7,68.3 21.1,69.4 L73,69.4 L74.5,69.4 L87.6,69.4 C87.7,68 87.8,66.4 87.8,64.8 L87.8,61.3 L75.3,61.3 L75.3,62.4 C75.3,65 75,66.8 74.3,67.8 C73.7,68.8 72.7,69.2 71.3,69.2 L43.3,69.2 C41.1,69.2 39.3,69 37.9,68.5 C36.5,68 35.4,67.2 34.6,66 C33.7,64.9 33.1,63.3 32.8,61.3 L24.8,61.3 L19.6,61.3 L19.6,61.3 Z M72.5,72.9 L21.4,72.9 C21.9,73.9 22.5,74.9 23.1,75.7 C23.7,76.4 24.3,77 25,77.7 L74,77.7 L76.4,77.7 L87.1,77.7 C87.8,76.4 88.3,74.8 88.7,72.9 L76.4,72.9 L72.5,72.9 Z M91.41,5.4 L75.9,5.4 L75.2,5.4 L31.3,5.4 C30,6.4 28.8,7.4 27.8,8.7 C27.5,9.1 27.1,9.7 26.8,10.3 L72.9,10.3 L76.8,10.3 L91.4,10.3 L91.4,5.4 L91.41,5.4 Z M45.5,41.4 L46.2,41.4 L76.7,41.4 L76.7,38 C76.7,35.5 75.8,34.3 73.9,34.3 L38.6,34.3 C37.6,34.3 36.5,34.8 36.5,37.2 L36.5,41.4 L45.5,41.4 Z M71.4,47.7 L71.6,48.1 C71.7,48.2 71.7,48.2 71.7,53.6 L74.7,53.6 L78.1,53.6 L84.3,53.6 L84.3,44.9 L46.2,44.9 L45.5,44.9 L44,44.9 C44.1,47.2 45.2,47.7 46.1,47.7 L71.4,47.7 Z M76.7,42.8 L46.2,42.8 L46.2,43.5 L84.3,43.5 L85,43.5 L86.4,43.5 L86.4,42.8 L80.2,42.8 L76.7,42.8 Z M74.7,59.9 L74.7,55 L71.7,55 L71,55 L62.1,55 L62.1,59.9 L74.7,59.9 Z" id="Shape"></path>
                <path d="M163.2,13.5 L156.9,13.5 L156.9,12.9 C156.8,12.5 156.8,12.3 156.8,12.1 L156.8,5.9 L168,5.9 L168,5.3 L156.8,5.3 L156.8,4.3 C156.8,0.4 159.5,0 160.3,0 L217.7,0 C218.5,0 221.1,0.3 221.2,3.9 L221.3,3.9 L232.4,3.9 L232.4,7.3 L221.3,7.3 L221.2,7.3 L221.2,12.1 L222.3,12.1 L227.5,12.1 L227.4,12.9 C227.1,15.4 225.4,16.3 224,16.3 L166.5,16.2 C165.8,16.2 163.8,16 163.2,13.5 Z M168.7,3.9 L169.4,3.9 L219.8,3.9 C219.7,1.9 218.6,1.4 217.7,1.4 L160.3,1.4 C159.4,1.4 158.3,1.9 158.2,3.9 L168.7,3.9 Z M163.8,12.1 L164.4,12.1 L219.8,12.1 L219.8,7.3 L169.4,7.3 L168.7,7.3 L158.2,7.3 L158.2,12.1 L163.8,12.1 Z M230.3,66.9 L226.7,66.9 C226.9,67.4 227,68.1 227,69 L227,74.9 L227.4,74.9 L235.3,74.9 L235.3,78.3 L229.7,78.3 L227.2,78.3 L227.2,79.9 C227.2,83 225.3,84.1 223.6,84.1 L188.1,84.1 C183.6,84.1 179.8,83.5 176.6,82.3 C174.1,81.4 171.8,80 169.9,78.1 L168.7,76.9 L177,76.9 C176.9,76.8 176.8,76.7 176.7,76.6 C176.6,76.5 176.6,76.4 176.5,76.2 L168.2,76.2 L168,75.9 C166.2,73.4 164.8,70.2 164,66.5 L163.8,65.7 L164.6,65.5 L172.5,65.5 C172.3,64 172,62.4 171.9,60.7 L163.7,60.7 L163.6,60.1 C163.5,58.4 163.4,56.7 163.3,54.9 L163.3,54.2 L173.1,54.2 L173.1,53.9 L173.1,53 L163.3,53 L163.4,49.3 L169.4,49.3 L169.4,48.7 L163.3,48.7 L163.4,41.3 L168,41.2 C168.1,40.8 168.3,40.3 168.4,39.9 L163.7,39.9 L164.4,38.7 C164.4,38.6 164.5,38.5 164.5,38.4 C166.1,35.7 168.8,34.1 171.9,33.8 L223.6,33.7 C224.4,33.7 227,34 227,37.9 L227,38.5 L227.4,38.5 L231.7,38.5 L231.7,42.7 L227,42.7 L227,45.8 C227,46.3 227,46.8 226.9,47.3 L227.4,47.3 L233.2,47.3 L232.6,48.3 C231.8,49.8 230.3,49.9 229.7,49.9 L185.7,49.9 C185.7,50 185.7,50 185.7,50 L185.6,50.7 L181.6,50.7 L179.6,50.7 C179.6,51 179.6,51.3 179.6,51.7 L184.7,51.7 L216.5,51.7 L216.5,55.6 L182.5,55.6 L179.5,55.6 L179.5,56.4 L179.5,56.6 C179.6,57 179.6,57.6 179.7,58 C179.8,58.5 179.9,58.9 180,59.3 L181.6,59.3 L188.1,59.3 L188.3,59.8 C188.6,60.8 188.9,61.6 189.4,62.2 C190.1,63.1 190.9,63.8 192.1,64.2 C193.3,64.6 195,64.8 197,64.8 L232.2,64.8 C232.8,64.8 233.7,64.9 234.6,65.6 L236,66.9 L230.3,66.9 L230.3,66.9 Z M219.7,13.5 L164.6,13.5 C165,14.6 165.8,14.8 166.5,14.8 L224,14.9 C224.6,14.9 225.5,14.6 225.8,13.5 L222.3,13.5 L219.7,13.5 Z M170.1,47.3 L170.8,47.3 L225.4,47.3 C225.5,46.9 225.7,46.4 225.7,45.8 L225.7,42.7 L169.4,42.7 L168.7,42.7 L164.8,42.7 L164.7,47.3 L170.1,47.3 Z M173.8,51.7 L174.5,51.7 L178.2,51.7 C178.2,51.3 178.2,51 178.2,50.7 L170.8,50.7 L170.1,50.7 L164.7,50.7 L164.7,51.7 L173.8,51.7 Z M172.5,59.3 L173.1,59.3 L178.6,59.3 C178.5,59 178.4,58.6 178.3,58.3 C178.2,57.8 178.2,57.2 178.1,56.7 L178.1,56.5 L178.1,55.6 L174.5,55.6 L173.8,55.6 L164.7,55.6 C164.8,56.9 164.9,58.1 165,59.3 L172.5,59.3 Z M225,66.9 L174.3,66.9 L173.4,66.9 L165.5,66.9 C166.3,70 167.4,72.7 168.9,74.9 L176.9,74.9 L177.2,74.9 L225.7,74.9 L225.7,69 C225.7,68 225.4,67.3 225,66.9 Z M169.5,38.5 L170.6,38.5 L225.7,38.5 L225.7,37.9 C225.7,35.6 224.5,35.1 223.6,35.1 L172,35.2 C169.6,35.4 167.5,36.6 166.1,38.5 L169.5,38.5 Z M219.8,5.3 L169.4,5.3 L169.4,5.9 L219.8,5.9 L221.3,5.9 L231,5.9 L231,5.3 L221.3,5.3 L219.8,5.3 Z M225.7,39.9 L169.9,39.9 C169.7,40.4 169.5,40.8 169.4,41.3 L225.7,41.3 L226.3,41.3 L230.3,41.3 L230.3,39.9 L227.4,39.9 L225.7,39.9 Z M184.6,48.7 L170.8,48.7 L170.8,49.3 L178.3,49.3 L181.6,49.3 L184.3,49.3 C184.4,49 184.4,48.8 184.6,48.7 Z M225.8,78.3 L180.2,78.3 L178.6,78.3 L172.2,78.3 C173.6,79.5 175.3,80.4 177.1,81 C180.1,82.1 183.8,82.7 188.1,82.7 L223.6,82.7 C224.6,82.7 225.8,82.2 225.8,79.9 L225.8,78.3 Z M178.9,60.7 L173.3,60.7 C173.4,62.5 173.7,64.1 174,65.5 L191.6,65.5 C190.2,65 189.1,64.2 188.3,63 C187.8,62.4 187.4,61.6 187.1,60.7 L181.6,60.7 L178.9,60.7 Z M178.2,53 L174.5,53 L174.5,53.8 L174.5,54.2 L178.1,54.2 L182.5,54.2 L215.1,54.2 L215.1,53 L184.7,53 L178.2,53 Z M225.7,76.2 L178.3,76.2 C178.5,76.5 178.7,76.7 178.9,76.9 L225.8,76.9 L229.7,76.9 L233.9,76.9 L233.9,76.2 L227.4,76.2 L225.7,76.2 Z" id="Shape"></path>
                <path d="M377.3,12 L386.7,12 L386.7,18.4 L376.7,18.4 L375.7,18.4 L375.7,24.2 L378,24.2 L382.6,24.2 L382.6,42.7 L382.9,42.7 L386.6,42.7 L386.6,46.5 L379.1,46.5 L378.2,46.5 L378.2,58.2 L377,58.2 L375.2,58.2 L375.2,64.1 L384.6,64.1 L384.6,70.4 C384.6,72.5 384.5,74.3 384.2,75.9 L384.1,76.5 L377,76.5 L375.9,76.5 C375.8,76.9 375.7,77.2 375.7,77.5 L376.8,77.5 L376.5,78.4 C376.2,79.5 375.8,80.3 375.3,80.9 C373.7,83 371.3,84 368.2,84 L360.9,84 C359.5,84 358.3,83.9 357.4,83.8 C356.3,83.6 355.3,83.2 354.4,82.6 C353.6,82 352.8,81.2 352,80.2 C351.7,79.8 351.4,79.4 351.1,78.9 L350.7,78.9 L345.6,78.9 L345.4,78.6 C344.9,78 344.4,77.3 343.9,76.4 L343,75.1 L356.1,75.1 L350.6,65.5 L349,65.5 L341.2,65.5 L336.4,56.9 L339.4,56.9 L332.8,45.1 L339.3,45.1 L338.7,44.1 L336.6,44.1 L326.2,25.6 L323.7,25.6 L323.7,42.7 L324.6,42.7 L331,42.7 L331,46.5 L322.3,46.5 L319.3,46.5 L319.3,56.9 L322.3,56.9 L324.9,56.9 L324.9,76.5 L317.9,76.5 L317.9,77.5 L319.9,77.5 L326,77.5 L326,79.9 C326,83.7 323.3,84 322.5,84 L313.6,84 C312.7,84 310,83.7 310,79.9 L310,78.9 L301.9,78.9 L301.9,75.1 L308.5,75.1 L308.9,75.1 L308.9,65.5 L300,65.5 L300,56.9 L303.3,56.9 L303.3,46.5 L301.4,46.5 L301.4,42.7 L307.7,42.7 L307.7,25.6 L300.8,25.6 L300.8,17 L307,17 L307,13.8 C307,13.7 307,13.5 307,13.4 L301.3,13.4 L301.3,12.7 C301.4,9.5 301.7,7 302.4,5.2 L302.6,4.8 L310,4.8 C310.3,4.2 310.6,3.7 310.9,3.3 C312.5,1.2 314.8,0.2 317.9,0.2 L325.4,0.2 C326.8,0.2 328.1,0.3 329.1,0.4 C330.2,0.6 331.3,1.1 332.1,1.7 C333,2.3 333.7,3.1 334.5,4.2 C334.7,4.5 334.9,4.8 335.1,5.1 L335.8,6.2 L328.3,6.2 C328.6,6.7 328.9,7.2 329.2,7.8 L331.6,12 L337.3,12 L340.9,18.4 L336,18.4 L334.7,18.4 L338,24.2 L340.7,24.2 L344.9,24.2 L355.3,42.7 L355.5,42.7 L357.4,42.7 L359.5,46.5 L353.3,46.5 L353,46.5 L359.3,57.8 L359.3,56.9 L362.3,56.9 L362.3,46.5 L361.5,46.5 L361.5,42.7 L366.8,42.7 L366.8,25.6 L351.7,25.6 L351.7,17 L366,17 L366,13.4 L360.3,13.4 L360.3,4.8 L367.7,4.8 L367.7,4.3 C367.7,1.3 369.5,0.2 371.2,0.2 L380.1,0.2 C381.8,0.2 383.6,1.3 383.6,4.3 L383.6,6.2 L376.7,6.2 L376.2,6.2 L376.2,12 L377.3,12 Z M317.9,58.2 L304.7,58.2 L304,58.2 L301.4,58.2 L301.4,64.1 L310.3,64.1 L310.3,75.1 L316.5,75.1 L317.2,75.1 L323.5,75.1 L323.5,58.2 L322.3,58.2 L317.9,58.2 Z M327,24.2 L336.4,24.2 L333.1,18.4 L308.4,18.4 L307.7,18.4 L302.2,18.4 L302.2,24.2 L308.4,24.2 L309.1,24.2 L322.3,24.2 L327,24.2 Z M307.7,12 L308.4,12 L330,12 L328,8.5 C327.5,7.6 327.1,6.9 326.7,6.2 L311,6.2 L310.5,6.2 L303.6,6.2 C303.1,7.6 302.8,9.6 302.7,12 L307.7,12 Z M322.3,44.1 L309.1,44.1 L307.7,44.1 L302.8,44.1 L302.8,45.1 L304,45.1 L304.7,45.1 L317.9,45.1 L322.3,45.1 L329.6,45.1 L329.6,44.1 L324.6,44.1 L322.3,44.1 Z M316.5,77.5 L316.5,76.5 L310.3,76.5 L308.5,76.5 L303.3,76.5 L303.3,77.5 L310.7,77.5 L311.4,77.5 L316.5,77.5 Z M317.9,46.5 L304.7,46.5 L304.7,56.9 L317.9,56.9 L317.9,46.5 Z M331.2,13.4 L330.8,13.4 L308.4,13.4 C308.4,13.5 308.4,13.7 308.4,13.8 L308.4,17 L332.3,17 L336,17 L338.5,17 L336.5,13.4 L331.2,13.4 Z M322.3,25.6 L309.1,25.6 L309.1,42.7 L322.3,42.7 L322.3,25.6 Z M316.5,78.9 L311.4,78.9 L311.4,79.9 C311.4,82.2 312.6,82.6 313.6,82.6 L322.5,82.6 C323.4,82.6 324.6,82.2 324.6,79.9 L324.6,78.9 L319.9,78.9 L316.5,78.9 Z M312,4.1 C311.9,4.3 311.7,4.6 311.6,4.8 L325.8,4.8 L327.1,4.8 L333.2,4.8 C332.6,4 332,3.3 331.3,2.8 C330.6,2.3 329.8,2 328.8,1.8 C327.9,1.7 326.8,1.6 325.4,1.6 L317.9,1.6 C315.3,1.6 313.3,2.4 312,4.1 Z M339.1,42.7 L339.5,42.7 L353.7,42.7 L344.1,25.6 L340.7,25.6 L337.2,25.6 L327.8,25.6 L337.4,42.7 L339.1,42.7 Z M341,56.9 L354.2,56.9 L356.1,56.9 L357.2,56.9 L351.4,46.5 L341.7,46.5 L340.5,46.5 L335.1,46.5 L341,56.9 Z M351.4,64.1 L358.3,64.1 L355,58.2 L341.8,58.2 L340.6,58.2 L338.8,58.2 L342,64.1 L349,64.1 L351.4,64.1 Z M354.5,44.1 L340.3,44.1 L340.9,45.1 L350.6,45.1 L353.3,45.1 L357.1,45.1 L356.6,44.1 L355.5,44.1 L354.5,44.1 Z M374.5,76.5 L358.4,76.5 L357.2,76.5 L345.6,76.5 C345.8,76.9 346,77.2 346.3,77.5 L350.7,77.5 L351.9,77.5 L374.2,77.5 C374.3,77.2 374.4,76.9 374.5,76.5 Z M374.5,65.5 L373.8,65.5 L352.2,65.5 L357.6,75.1 L374.8,75.1 L377,75.1 L382.9,75.1 C383.1,73.8 383.2,72.2 383.2,70.4 L383.2,65.5 L374.5,65.5 L374.5,65.5 Z M374.8,78.9 L374.7,78.9 L373.7,78.9 L352.8,78.9 C352.9,79.1 353,79.2 353.1,79.4 C353.8,80.3 354.5,81 355.2,81.5 C355.9,81.9 356.7,82.3 357.6,82.4 C358.5,82.6 359.6,82.6 360.9,82.6 L368.2,82.6 C370.9,82.6 372.9,81.8 374.2,80.1 C374.4,79.8 374.6,79.4 374.8,78.9 Z M374.3,18.4 L367.4,18.4 L366.7,18.4 L353,18.4 L353,24.2 L367.5,24.2 L368.1,24.2 L374.3,24.2 L374.3,18.4 Z M359.3,58.2 L356.6,58.2 L359.3,63.1 L359.3,58.2 Z M373.8,58.2 L363.7,58.2 L363,58.2 L360.7,58.2 L360.7,64.1 L373.8,64.1 L373.8,58.2 Z M366.7,12 L367.4,12 L374.8,12 L374.8,6.2 L369.1,6.2 L368.4,6.2 L361.7,6.2 L361.7,12 L366.7,12 Z M381.2,44.1 L368.1,44.1 L367.5,44.1 L362.9,44.1 L362.9,45.1 L363,45.1 L363.7,45.1 L376.8,45.1 L379.1,45.1 L385.2,45.1 L385.2,44.1 L382.9,44.1 L381.2,44.1 Z M376.8,46.5 L363.7,46.5 L363.7,56.9 L373.8,56.9 L376.8,56.9 L376.8,46.5 Z M377.3,13.4 L374.8,13.4 L367.4,13.4 L367.4,17 L374.3,17 L376.7,17 L385.3,17 L385.3,13.4 L377.3,13.4 Z M374.3,25.6 L368.1,25.6 L368.1,42.7 L381.2,42.7 L381.2,25.6 L378,25.6 L374.3,25.6 Z M369.1,4.3 L369.1,4.8 L374.8,4.8 L376.7,4.8 L382.2,4.8 L382.2,4.3 C382.2,2.1 381.1,1.6 380.1,1.6 L371.2,1.6 C370.3,1.6 369.1,2.1 369.1,4.3 Z" id="Shape"></path>
                <path d="M532.1,18.9 C532.9,22.7 533.2,27.2 533.2,32.2 L533.2,38.2 L528.2,38.2 L527.8,38.2 L527.8,39.2 L528.2,39.2 L531.6,39.2 L531.6,51 L531.7,51 L533.2,51 L533.2,52 C533.2,54.4 533.1,56.7 533,59 L532.9,59.6 L530.3,59.6 L529.9,59.6 C529.7,62.2 529.3,64.5 528.9,66.5 C528.6,67.7 528.3,68.8 527.8,70.2 L527.7,70.6 L525.8,70.6 L523.8,70.6 C523.6,71 523.5,71.3 523.4,71.7 L523.9,71.7 L529.9,71.7 L529.5,72.7 C528.7,74.2 528,75.5 527.1,76.6 C526.1,77.9 524.8,79.1 523.3,80.2 L523.1,80.3 L520.3,80.3 L517.7,80.3 C516.4,81.1 515,81.8 513.6,82.3 C510.4,83.5 506.5,84 502.1,84 L477.7,84 C473.2,84 469.4,83.5 466.2,82.3 C464.7,81.8 463.3,81.1 462,80.2 L460.2,78.9 L465.8,78.9 C465,78.2 464.2,77.4 463.6,76.6 C462.8,75.6 462.1,74.4 461.4,73.1 L452.2,73.1 L452,72.7 C451.7,71.9 451.3,71.1 451,70.2 L450.7,69.3 L457.2,69.3 C456.9,68.3 456.7,67.4 456.5,66.5 C456,64.5 455.7,62.2 455.4,59.6 L452.3,59.6 L452.3,59 C452.1,56.7 452,54.4 452,52 L452,51 L455.6,51 L455.6,40.6 L450.9,40.6 L450.9,36.8 L458.1,36.8 L458.1,32.2 C458.1,27.6 458.5,23.4 459.1,19.8 L451.8,19.8 L452.1,18.5 C452.1,18.2 452.2,18 452.2,17.8 C452.7,15.6 453.4,13.5 454.4,11.5 L454.6,11.2 L459.2,11.2 C459.9,9.8 460.6,8.7 461.3,7.8 C461.7,7.3 462.1,6.8 462.6,6.4 L462.8,6.2 L468.3,6.2 C470.1,4.3 472.3,2.9 474.8,2 C478,0.8 481.9,0.2 486.3,0.2 L510.7,0.2 C515.2,0.2 519,0.8 522.2,2 C524.9,2.9 527.2,4.4 529.1,6.4 L530.2,7.6 L524.7,7.6 C524.7,7.6 524.8,7.7 524.8,7.8 C525.7,8.8 526.4,10 527.1,11.5 L527.6,12.5 L522.9,12.5 C523.7,14.2 524.2,16 524.6,17.8 C524.7,18 524.7,18.2 524.7,18.4 L525.4,18.4 L532,18.4 L532.1,18.9 Z M456.3,39.2 L457,39.2 L470.4,39.2 L471.9,39.2 L492.9,39.2 L492.9,38.2 L474.1,38.2 L473,38.2 L459.5,38.2 L458.8,38.2 L452.3,38.2 L452.3,39.2 L456.3,39.2 Z M522.3,70.6 L459.2,70.6 L458.2,70.6 L452.7,70.6 C452.8,71 453,71.3 453.1,71.7 L461.8,71.7 L462.3,71.7 L521.8,71.7 C522,71.3 522.1,71 522.3,70.6 Z M456.1,58.2 L456.7,58.2 L467,58.2 C466.9,56.8 466.8,55.4 466.8,53.8 L466.8,52.4 L457,52.4 L456.3,52.4 L453.4,52.4 C453.4,54.4 453.4,56.3 453.6,58.2 L456.1,58.2 Z M460,18.4 L460.8,18.4 L467.9,18.4 C467.9,18.3 468,18.3 468,18.2 C468.8,17.1 469.9,16.3 471.3,15.8 C472.7,15.3 474.6,15 476.7,15 L500.1,15 C502.2,15 504,15.3 505.5,15.8 C506.9,16.3 508,17.1 508.8,18.2 C508.8,18.3 508.9,18.3 508.9,18.4 L515.8,18.4 L516.2,18.4 L523.3,18.4 C523.3,18.3 523.3,18.2 523.3,18.1 C522.8,16.1 522.2,14.3 521.4,12.5 L460.1,12.5 L459.6,12.5 L455.4,12.5 C454.6,14.3 454,16.1 453.5,18.1 C453.5,18.2 453.5,18.3 453.5,18.4 L460,18.4 Z M528.5,59.6 L518.1,59.6 L517.5,59.6 L515.1,59.6 C515,60.2 514.9,60.8 514.8,61.3 C514.5,63.3 513.9,64.9 513.1,66 C512.2,67.2 511.1,68 509.7,68.5 C508.3,68.9 506.5,69.2 504.3,69.2 L481,69.2 C478.8,69.2 477,68.9 475.6,68.5 C474.2,68 473.1,67.2 472.3,66 C471.4,64.9 470.8,63.3 470.5,61.3 C470.4,60.8 470.3,60.2 470.2,59.6 L469.5,59.6 L467.1,59.6 L456.8,59.6 C457.1,62.1 457.4,64.3 457.8,66.2 C458,67.2 458.3,68.2 458.7,69.3 L522.8,69.3 L525.8,69.3 L526.7,69.3 C527,68.2 527.3,67.2 527.5,66.2 C528,64.3 528.3,62.1 528.5,59.6 Z M457,51 L466.8,51 L469.5,51 L470.4,51 L470.4,40.6 L457,40.6 L457,51 Z M474.4,19.8 L468.3,19.8 L467.1,19.8 L460.5,19.8 C459.9,23.3 459.5,27.5 459.5,32.2 L459.5,36.8 L473,36.8 L473,30.5 C473,27.5 473.1,25 473.5,23 C473.7,21.8 474,20.7 474.4,19.8 Z M460.8,11.2 L520.8,11.2 L521.9,11.2 L525.4,11.2 C524.9,10.2 524.3,9.4 523.8,8.6 C523.5,8.3 523.1,7.9 522.8,7.6 L468.8,7.6 L468.5,7.6 L463.4,7.6 C463,7.9 462.7,8.3 462.4,8.6 C461.8,9.3 461.3,10.2 460.8,11.2 Z M521.2,73.1 L463,73.1 C463.5,74 464.1,75 464.7,75.7 C465.6,76.9 466.7,78 468,78.9 L517.3,78.9 L520.3,78.9 L522.7,78.9 C524,78 525.1,76.9 526,75.7 C526.6,74.9 527.2,74.1 527.7,73.1 L523.9,73.1 L521.2,73.1 Z M514.9,80.3 L470,80.3 L467.8,80.3 L464.9,80.3 C465.5,80.6 466.1,80.8 466.7,81 C469.7,82.1 473.4,82.6 477.7,82.6 L502.1,82.6 C506.4,82.6 510.1,82.1 513.1,81 C513.7,80.8 514.3,80.5 514.9,80.3 Z M509.1,40.6 L509.1,36.8 L517,36.8 L517,30.5 C517,27.6 516.8,25.1 516.5,23.2 C516.2,21.8 515.9,20.7 515.4,19.8 L508.1,19.8 L507.8,19.2 C507.7,19.2 507.7,19.1 507.7,19 C507,18.1 506.1,17.5 505,17.1 C503.7,16.6 502.1,16.4 500.1,16.4 L476.7,16.4 C474.7,16.4 473,16.6 471.8,17.1 C470.9,17.4 470.2,17.8 469.7,18.4 L476.8,18.4 L476.2,19.4 C475.6,20.4 475.1,21.7 474.9,23.2 C474.5,25.1 474.3,27.6 474.3,30.5 L474.3,36.8 L494.3,36.8 L494.3,40.6 L471.9,40.6 L471.8,40.6 L471.8,52.4 L469.5,52.4 L468.2,52.4 L468.2,53.8 C468.2,55.3 468.2,56.8 468.4,58.2 L469.5,58.2 L471.5,58.2 L471.6,58.8 C471.6,59.6 471.7,60.4 471.8,61 C472.2,62.8 472.7,64.2 473.4,65.2 C474,66.1 474.9,66.8 476,67.2 C477.3,67.6 479,67.8 481,67.8 L504.3,67.8 C506.4,67.8 508,67.6 509.3,67.2 C510.4,66.8 511.3,66.1 511.9,65.2 C512.6,64.2 513.2,62.8 513.5,61 C513.6,60.4 513.7,59.6 513.8,58.8 L513.8,58.2 L516.8,58.2 C517,56.9 517,55.4 517,53.8 L517,52.4 L511.6,52.4 L511.6,40.6 L509.1,40.6 Z M470.3,6.2 L521.4,6.2 L523.1,6.2 L526.8,6.2 C525.3,4.9 523.6,4 521.8,3.3 C518.7,2.1 515,1.6 510.7,1.6 L486.3,1.6 C482,1.6 478.3,2.1 475.3,3.3 C473.5,4 471.8,4.9 470.3,6.2 Z M526.5,38.2 L518.4,38.2 L517.7,38.2 L510.5,38.2 L510.5,39.2 L512.3,39.2 L513,39.2 L526.5,39.2 L526.5,38.2 Z M526.5,40.6 L513,40.6 L513,51 L517.7,51 L518.4,51 L530.2,51 L530.2,40.6 L528.2,40.6 L526.5,40.6 Z M531.8,32.2 C531.8,27.5 531.5,23.3 530.9,19.8 L525.4,19.8 L523.6,19.8 L516.9,19.8 C517.3,20.7 517.6,21.8 517.9,23 C518.2,25 518.4,27.5 518.4,30.5 L518.4,36.8 L526.5,36.8 L528.2,36.8 L531.8,36.8 L531.8,32.2 L531.8,32.2 Z M530.2,52.4 L518.4,52.4 L518.4,53.8 C518.4,55.4 518.3,56.8 518.2,58.2 L528.6,58.2 L530.3,58.2 L531.6,58.2 C531.8,56.3 531.8,54.4 531.8,52.4 L531.7,52.4 L530.2,52.4 Z" id="Shape"></path>
            </g>
        </g>
    </g>
</svg>