<?xml version="1.0" encoding="UTF-8"?>
<svg width="16px" height="14px" viewBox="0 0 16 14" version="1.1" xmlns="http://www.w3.org/2000/svg" xmlns:xlink="http://www.w3.org/1999/xlink">
    <title>logos/medium</title>
    <g id="Components" stroke="none" stroke-width="1" fill="none" fill-rule="evenodd">
        <g id="Assets" transform="translate(-705.000000, -1827.000000)">
            <g id="Group" transform="translate(704.000000, 1825.000000)">
                <rect id="ViewBox" x="0" y="0" width="18" height="18"></rect>
                <path d="M2.9926875,5.33712211 C3.012375,5.14551842 2.93821875,4.95651275 2.79384375,4.82791096 L1.32384375,3.07425012 L1.32384375,2.8125 L5.89003125,2.8125 L9.41934375,10.4733999 L12.5220938,2.8125 L16.875,2.8125 L16.875,3.07425012 L15.617625,4.26738899 C15.5093438,4.3492265 15.4555312,4.48367383 15.4778437,4.61682215 L15.4778437,13.3838274 C15.4555312,13.5163262 15.5093437,13.6507735 15.617625,13.732611 L16.8454687,14.9257499 L16.8454687,15.1875 L10.6688437,15.1875 L10.6688437,14.9257499 L11.9413125,13.7033833 C12.066,13.5799776 12.066,13.5436053 12.066,13.3545997 L12.066,6.26851086 L8.52946875,15.1589218 L8.05171875,15.1589218 L3.93375,6.26851086 L3.93375,12.2270607 C3.899625,12.4771197 3.983625,12.7297768 4.16146875,12.9103389 L5.815875,14.8965222 L5.815875,15.1589218 L1.125,15.1589218 L1.125,14.8965222 L2.77940625,12.9103389 C2.95659375,12.7291273 3.03534375,12.4751712 2.9926875,12.2270607 L2.9926875,5.33712211 L2.9926875,5.33712211 Z" id="Path" fill="#D4FFF6"></path>
            </g>
        </g>
    </g>
</svg>