<?xml version="1.0" encoding="utf-8"?>
<!-- Generator: Adobe Illustrator 25.2.1, SVG Export Plug-In . SVG Version: 6.00 Build 0)  -->
<svg version="1.1" id="Layer_1" xmlns="http://www.w3.org/2000/svg" xmlns:xlink="http://www.w3.org/1999/xlink" x="0px" y="0px"
	 viewBox="0 0 217.38 144.23" style="enable-background:new 0 0 217.38 144.23;" xml:space="preserve">
<style type="text/css">
	.st0{fill:#231F20;}
	.st1{fill:url(#SVGID_1_);}
</style>
<g>
	<path class="st0" d="M84.63,68.88c0.07,0.07-0.03,0.23-0.3,0.5c-1.6,1.73-3.4,3.4-5.4,5s-4.03,3.1-6.1,4.5
		c-3.2,2.2-6.38,4.18-9.55,5.95c-3.17,1.77-6.08,2.98-8.75,3.65c-0.53,0.13-1.13,0.29-1.8,0.45c-0.67,0.17-1.32,0.3-1.95,0.4
		c-0.63,0.1-1.2,0.18-1.7,0.25s-0.85,0.07-1.05,0c-0.53-0.13-0.87-0.43-1-0.9c-0.13-0.46-0.03-0.9,0.3-1.3
		c0.13-0.2,0.58-0.5,1.35-0.9c0.77-0.4,1.28-0.67,1.55-0.8c0.07-0.06,0.28-0.18,0.65-0.35c0.37-0.17,0.77-0.37,1.2-0.6
		c0.43-0.23,0.87-0.46,1.3-0.7c0.43-0.23,0.78-0.45,1.05-0.65c1.27-0.87,2.57-1.88,3.9-3.05c1.33-1.17,2.62-2.37,3.85-3.6
		c1.23-1.23,2.43-2.46,3.6-3.7c1.17-1.23,2.22-2.38,3.15-3.45c1.53-2,3.03-4.18,4.5-6.55c1.47-2.37,2.67-4.62,3.6-6.75
		c-1.73,0.27-3.67,1.05-5.8,2.35c-2.13,1.3-4.37,2.93-6.7,4.9c-2.33,1.97-4.7,4.17-7.1,6.6c-2.4,2.43-4.68,4.88-6.85,7.35
		c-2.17,2.47-4.18,4.88-6.05,7.25c-1.87,2.37-3.43,4.48-4.7,6.35c-2.73,4-5.43,7.95-8.1,11.85c-2.67,3.9-5.4,7.85-8.2,11.85
		c-2.8,4.06-5.65,8.15-8.55,12.25c-2.9,4.1-5.92,8.08-9.05,11.95c-0.67,0.8-1.33,1.6-2,2.4c-0.67,0.8-1.4,1.53-2.2,2.2
		c-0.2,0.13-0.5,0.32-0.9,0.55c-0.4,0.23-0.67,0.08-0.8-0.45c-0.07-0.33-0.03-0.7,0.1-1.1c0.13-0.4,0.27-0.77,0.4-1.1
		c0.27-0.67,0.53-1.32,0.8-1.95c0.27-0.63,0.57-1.25,0.9-1.85c2-4,4.18-7.85,6.55-11.55c2.37-3.7,4.72-7.42,7.05-11.15
		c1.8-2.8,3.6-5.57,5.4-8.3s3.67-5.5,5.6-8.3c1-1.4,2.17-3.07,3.5-5c1.33-1.94,2.73-3.92,4.2-5.95c1.47-2.03,2.92-4.03,4.35-6
		c1.43-1.96,2.72-3.73,3.85-5.3c1.13-1.57,2.4-3.32,3.8-5.25c1.53-1.93,2.93-3.7,4.2-5.3c1.13-1.33,2.18-2.62,3.15-3.85
		c0.97-1.23,1.62-2.02,1.95-2.35c0.07-0.07,0.35-0.35,0.85-0.85s1.07-1.07,1.7-1.7c0.63-0.63,1.32-1.25,2.05-1.85
		c0.73-0.6,1.37-1.03,1.9-1.3c0.47-0.27,0.83-0.33,1.1-0.2c0.33,0.13,0.43,0.43,0.3,0.9c-0.27,1.13-0.57,2.13-0.9,3
		c-0.33,0.87-0.72,1.7-1.15,2.5c-0.43,0.8-0.9,1.6-1.4,2.4c-0.5,0.8-1.08,1.73-1.75,2.8c0.33-0.33,0.65-0.62,0.95-0.85
		c0.3-0.23,0.58-0.48,0.85-0.75c2.67-2.46,5.22-4.46,7.65-6c2.43-1.53,4.63-2.7,6.6-3.5c1.97-0.8,3.67-1.28,5.1-1.45
		c1.43-0.17,2.45-0.12,3.05,0.15c1,0.47,1.48,1.28,1.45,2.45c-0.03,1.17-0.38,2.5-1.05,4c-0.67,1.5-1.52,3.1-2.55,4.8
		c-1.03,1.7-2.08,3.3-3.15,4.8c-1.07,1.5-2.03,2.8-2.9,3.9c-0.87,1.1-1.43,1.82-1.7,2.15l-2.1,2.5c1.93-1.33,3.87-2.65,5.8-3.95
		c1.93-1.3,3.97-2.52,6.1-3.65c0.13-0.13,0.48-0.33,1.05-0.6C84.25,68.81,84.57,68.75,84.63,68.88z"/>
	<path class="st0" d="M113.13,68.08c-0.53,0.6-1.15,1.27-1.85,2c-0.7,0.73-1.39,1.42-2.05,2.05c-0.67,0.63-1.07,1.02-1.2,1.15
		c-2.67,2.33-5.4,4.62-8.2,6.85c-2.8,2.23-5.87,4.28-9.2,6.15c-1.6,0.93-3.27,1.78-5,2.55c-1.73,0.77-3.53,1.18-5.4,1.25
		c-1.6,0-3.02-0.52-4.25-1.55c-1.23-1.03-1.75-2.42-1.55-4.15c0.4-3.8,1.63-7.23,3.7-10.3c2.07-3.06,4.37-5.96,6.9-8.7
		c1.27-1.33,2.6-2.58,4-3.75c1.4-1.17,2.87-2.28,4.4-3.35c1.47-1.07,3-2.02,4.6-2.85c1.6-0.83,3.27-1.52,5-2.05
		c0.8-0.27,1.67-0.42,2.6-0.45c0.93-0.03,1.8,0.15,2.6,0.55c1.6,0.93,2.33,2.22,2.2,3.85c-0.13,1.63-0.77,3.32-1.9,5.05
		c-0.53,0.73-1.07,1.43-1.6,2.1c-0.53,0.67-1.1,1.33-1.7,2c-2.4,2.6-5.1,4.8-8.1,6.6c-2.13,1.2-4.27,2.25-6.4,3.15
		c-2.13,0.9-4.57,1.72-7.3,2.45c-1.47,1.94-2.53,4.07-3.2,6.4c1.93,0,4.07-0.45,6.4-1.35c2.33-0.9,4.67-2.03,7-3.4
		c2.33-1.37,4.63-2.8,6.9-4.3c2.27-1.5,4.33-2.85,6.2-4.05c0.13-0.07,0.57-0.37,1.3-0.9c0.73-0.53,1.52-1.12,2.35-1.75
		c0.83-0.63,1.95-1.42,3.35-2.35C113.87,67.11,113.66,67.48,113.13,68.08z M88.13,72.38c-0.67,0.73-1.18,1.37-1.55,1.9
		c-0.37,0.53-0.78,1.13-1.25,1.8c2.27-0.6,4.48-1.48,6.65-2.65c2.17-1.16,4.17-2.55,6-4.15c1.83-1.6,3.47-3.4,4.9-5.4
		c1.43-2,2.55-4.17,3.35-6.5c-3.54,1.67-6.73,3.83-9.6,6.5C93.76,66.54,90.93,69.38,88.13,72.38z"/>
	<path class="st0" d="M208.33,19.88c2.6-0.2,3.9-0.2,3.9,0c0.07,0.07-1.2,0.37-3.8,0.9c-1.2,0.27-2.68,0.55-4.45,0.85
		c-1.77,0.3-3.75,0.65-5.95,1.05c-5.87,0.93-11.55,1.85-17.05,2.75s-11.35,1.82-17.55,2.75c-3.07,0.47-6.05,0.9-8.95,1.3
		c-2.9,0.4-5.72,0.77-8.45,1.1c-2,3-3.78,5.63-5.35,7.9c-1.57,2.27-2.62,3.77-3.15,4.5c-2.47,3.47-4.95,6.88-7.45,10.25
		c-2.5,3.37-5.02,6.75-7.55,10.15c-2.13,2.8-4.23,5.58-6.3,8.35c-2.07,2.77-4.1,5.58-6.1,8.45c2.33-1.66,4.7-3.28,7.1-4.85
		c2.4-1.56,4.83-3.12,7.3-4.65c0.53-0.33,1.07-0.63,1.6-0.9c0.53-0.27,1.07-0.53,1.6-0.8c0.6-0.27,0.9-0.33,0.9-0.2
		c0,0.2-0.38,0.65-1.15,1.35c-0.77,0.7-1.65,1.45-2.65,2.25c-1,0.8-1.97,1.55-2.9,2.25c-0.93,0.7-1.57,1.18-1.9,1.45
		c-1.73,1.4-3.47,2.8-5.2,4.2c-1.73,1.4-3.47,2.87-5.2,4.4c-0.67,0.54-1.32,1.1-1.95,1.7c-0.63,0.6-1.28,1.2-1.95,1.8
		c-0.54,0.47-1.1,0.87-1.7,1.2c-0.6,0.33-1.3,0.37-2.1,0.1c-0.93-0.33-1.52-0.83-1.75-1.5c-0.23-0.67-0.25-1.4-0.05-2.2
		c0.2-0.8,0.52-1.58,0.95-2.35c0.43-0.77,0.82-1.41,1.15-1.95c0.67-1.13,1.33-2.2,2-3.2c0.67-1,1.37-2.03,2.1-3.1
		c2.53-3.8,5.12-7.5,7.75-11.1c2.63-3.6,5.25-7.27,7.85-11c0.73-1,1.72-2.33,2.95-4c1.23-1.67,2.57-3.47,4-5.4
		c1.43-1.93,2.95-3.95,4.55-6.05c1.6-2.1,3.13-4.12,4.6-6.05c-1.53,0.13-3.2,0.3-5,0.5c-1.8,0.2-3.6,0.37-5.4,0.5
		c-1.8,0.13-3.53,0.25-5.2,0.35c-1.67,0.1-3.13,0.15-4.4,0.15c-2.67,0-4-0.23-4-0.7c-0.07-0.2,0.23-0.43,0.9-0.7
		c0.67-0.27,1.6-0.57,2.8-0.9c3.46-1,7.3-1.77,11.5-2.3c4.2-0.53,8.37-1.17,12.5-1.9c1.2-1.53,2.2-2.83,3-3.9
		c0.8-1.07,1.3-1.7,1.5-1.9c2.6-3.27,5.21-6.53,7.85-9.8c2.63-3.27,5.45-6.37,8.45-9.3c0.07-0.07,0.25-0.23,0.55-0.5
		c0.3-0.27,0.6-0.48,0.9-0.65c0.3-0.17,0.53-0.22,0.7-0.15c0.17,0.07,0.15,0.33-0.05,0.8c-0.87,1.93-1.82,3.77-2.85,5.5
		c-1.03,1.73-2.17,3.55-3.4,5.45c-1.23,1.9-2.58,3.93-4.05,6.1c-1.47,2.17-3.1,4.62-4.9,7.35c2.13-0.27,4.33-0.52,6.6-0.75
		c2.27-0.23,4.57-0.48,6.9-0.75c6.2-0.6,12.07-1.18,17.6-1.75c5.53-0.57,11.27-1.12,17.2-1.65c2.27-0.2,4.28-0.37,6.05-0.5
		C205.55,20.04,207.06,19.94,208.33,19.88z"/>
	<path class="st0" d="M148.13,54.08c0.07,0.73-0.07,1.4-0.4,2c-0.33,0.6-0.75,1.15-1.25,1.65s-1.04,0.98-1.6,1.45
		c-0.57,0.47-1.02,1-1.35,1.6c-0.67,1.13-1.25,2.33-1.75,3.6c-0.5,1.27-0.95,2.53-1.35,3.8c-0.4,1.4-0.78,2.75-1.15,4.05
		c-0.37,1.3-0.72,2.62-1.05,3.95c-0.67,2.34-1.7,4.54-3.1,6.6c-1.4,2.07-3.17,3.67-5.3,4.8c-2.53,1.27-5.03,1.8-7.5,1.6
		c-1.33-0.2-2.43-0.56-3.3-1.1c-0.07,0-0.27-0.1-0.6-0.3c-0.33-0.2-0.68-0.4-1.05-0.6c-0.37-0.2-0.67-0.41-0.9-0.65
		c-0.23-0.23-0.32-0.42-0.25-0.55c0.07-0.13,0.43-0.08,1.1,0.15c0.67,0.23,1.07,0.35,1.2,0.35c0.87,0.27,1.83,0.4,2.9,0.4
		c1.93-0.13,3.63-0.77,5.1-1.9c1.27-0.93,2.42-2.17,3.45-3.7c1.03-1.53,1.65-3.07,1.85-4.6c0.27-1.53,0.52-3.12,0.75-4.75
		c0.23-1.63,0.45-3.31,0.65-5.05c-1.67,1.53-3.73,3.17-6.2,4.9c-2.47,1.73-4.88,3.32-7.25,4.75c-2.37,1.43-4.42,2.6-6.15,3.5
		c-1.73,0.9-2.7,1.25-2.9,1.05c-0.13-0.2,0.75-1.02,2.65-2.45c1.9-1.43,4.2-3.2,6.9-5.3s5.47-4.42,8.3-6.95
		c2.83-2.53,5.12-5.03,6.85-7.5c0.6-0.93,1.2-1.85,1.8-2.75c0.6-0.9,1.27-1.82,2-2.75c0.73-0.73,1.55-1.37,2.45-1.9
		c0.9-0.53,1.88-0.8,2.95-0.8c0.93,0,1.73,0.33,2.4,1C147.7,52.34,148.06,53.15,148.13,54.08z"/>
</g>
<linearGradient id="SVGID_1_" gradientUnits="userSpaceOnUse" x1="5.1499" y1="71.9421" x2="217.3847" y2="71.9421">
	<stop  offset="0" style="stop-color:#FF0468"/>
	<stop  offset="1" style="stop-color:#F081FF"/>
	<stop  offset="1" style="stop-color:#FF0063"/>
</linearGradient>
<path class="st1" d="M213.48,19.53c-1.27,0.07-2.78,0.17-4.55,0.3c-1.77,0.13-3.78,0.3-6.05,0.5c-5.93,0.53-11.67,1.08-17.2,1.65
	c-5.53,0.57-11.4,1.15-17.6,1.75c-2.33,0.27-4.63,0.52-6.9,0.75c-2.27,0.23-4.47,0.48-6.6,0.75c1.8-2.73,3.43-5.18,4.9-7.35
	c1.47-2.17,2.82-4.2,4.05-6.1c1.23-1.9,2.37-3.72,3.4-5.45c1.03-1.73,1.98-3.57,2.85-5.5c0.2-0.47,0.22-0.73,0.05-0.8
	c-0.17-0.07-0.4-0.02-0.7,0.15c-0.3,0.17-0.6,0.38-0.9,0.65c-0.3,0.27-0.48,0.43-0.55,0.5c-3,2.93-5.82,6.03-8.45,9.3
	c-2.63,3.27-5.25,6.53-7.85,9.8c-0.2,0.2-0.7,0.83-1.5,1.9c-0.8,1.07-1.8,2.37-3,3.9c-4.13,0.73-8.3,1.37-12.5,1.9
	c-4.2,0.53-8.04,1.3-11.5,2.3c-1.2,0.33-2.13,0.63-2.8,0.9c-0.67,0.27-0.97,0.5-0.9,0.7c0,0.47,1.33,0.7,4,0.7
	c1.27,0,2.73-0.05,4.4-0.15c1.67-0.1,3.4-0.22,5.2-0.35c1.8-0.13,3.6-0.3,5.4-0.5s3.47-0.37,5-0.5c-1.47,1.93-3,3.95-4.6,6.05
	c-1.6,2.1-3.12,4.12-4.55,6.05c-1.43,1.93-2.77,3.73-4,5.4c-1.23,1.67-2.22,3-2.95,4c-2.6,3.73-5.22,7.4-7.85,11
	c-1.28,1.75-2.55,3.53-3.81,5.33c-0.79,0.6-1.54,1.16-2.24,1.67c-0.73,0.54-1.17,0.83-1.3,0.9c-1.87,1.2-3.93,2.55-6.2,4.05
	c-2.27,1.5-4.57,2.93-6.9,4.3c-2.33,1.37-4.67,2.5-7,3.4c-2.33,0.9-4.47,1.35-6.4,1.35c0.67-2.33,1.73-4.46,3.2-6.4
	c2.73-0.73,5.17-1.55,7.3-2.45c2.13-0.9,4.27-1.95,6.4-3.15c3-1.8,5.7-4,8.1-6.6c0.6-0.67,1.17-1.33,1.7-2
	c0.53-0.67,1.07-1.37,1.6-2.1c1.13-1.73,1.77-3.42,1.9-5.05c0.13-1.63-0.6-2.92-2.2-3.85c-0.8-0.4-1.67-0.58-2.6-0.55
	c-0.93,0.03-1.8,0.18-2.6,0.45c-1.73,0.53-3.4,1.22-5,2.05c-1.6,0.83-3.13,1.78-4.6,2.85c-1.53,1.07-3,2.18-4.4,3.35
	c-1.4,1.17-2.73,2.42-4,3.75c-1.65,1.78-3.2,3.65-4.65,5.57c-1.32,0.76-2.61,1.55-3.85,2.38c-1.93,1.3-3.87,2.62-5.8,3.95l2.1-2.5
	c0.27-0.33,0.83-1.05,1.7-2.15c0.87-1.1,1.83-2.4,2.9-3.9c1.07-1.5,2.12-3.1,3.15-4.8c1.03-1.7,1.88-3.3,2.55-4.8
	c0.67-1.5,1.02-2.83,1.05-4c0.03-1.17-0.45-1.98-1.45-2.45c-0.6-0.27-1.62-0.32-3.05-0.15c-1.43,0.17-3.13,0.65-5.1,1.45
	c-1.97,0.8-4.17,1.97-6.6,3.5c-2.43,1.54-4.98,3.54-7.65,6c-0.27,0.27-0.55,0.52-0.85,0.75c-0.3,0.23-0.62,0.52-0.95,0.85
	c0.67-1.06,1.25-2,1.75-2.8c0.5-0.8,0.97-1.6,1.4-2.4c0.43-0.8,0.82-1.63,1.15-2.5c0.33-0.87,0.63-1.87,0.9-3
	c0.13-0.47,0.03-0.77-0.3-0.9c-0.27-0.13-0.63-0.07-1.1,0.2c-0.53,0.27-1.17,0.7-1.9,1.3c-0.73,0.6-1.42,1.22-2.05,1.85
	c-0.63,0.63-1.2,1.2-1.7,1.7s-0.78,0.78-0.85,0.85c-0.33,0.33-0.98,1.12-1.95,2.35c-0.97,1.23-2.02,2.52-3.15,3.85
	c-1.27,1.6-2.67,3.37-4.2,5.3c-1.4,1.93-2.67,3.68-3.8,5.25c-1.13,1.57-2.42,3.33-3.85,5.3c-1.43,1.97-2.88,3.97-4.35,6
	c-1.47,2.03-2.87,4.02-4.2,5.95c-1.33,1.93-2.5,3.6-3.5,5c-1.93,2.8-3.8,5.56-5.6,8.3s-3.6,5.5-5.4,8.3
	c-2.33,3.73-4.68,7.45-7.05,11.15c-2.37,3.7-4.55,7.55-6.55,11.55c-0.33,0.6-0.63,1.22-0.9,1.85c-0.27,0.63-0.53,1.28-0.8,1.95
	c-0.13,0.33-0.27,0.7-0.4,1.1c-0.13,0.4-0.17,0.77-0.1,1.1c0.13,0.53,0.4,0.68,0.8,0.45c0.4-0.23,0.7-0.42,0.9-0.55
	c0.8-0.67,1.53-1.4,2.2-2.2c0.67-0.8,1.33-1.6,2-2.4c3.13-3.87,6.15-7.85,9.05-11.95c2.9-4.1,5.75-8.19,8.55-12.25
	c2.8-4,5.53-7.95,8.2-11.85c2.67-3.9,5.37-7.85,8.1-11.85c1.27-1.87,2.83-3.98,4.7-6.35c1.87-2.37,3.88-4.78,6.05-7.25
	c2.17-2.46,4.45-4.92,6.85-7.35c2.4-2.43,4.77-4.63,7.1-6.6c2.33-1.97,4.57-3.6,6.7-4.9c2.13-1.3,4.07-2.08,5.8-2.35
	c-0.93,2.13-2.13,4.38-3.6,6.75c-1.47,2.37-2.97,4.55-4.5,6.55c-0.93,1.07-1.98,2.22-3.15,3.45c-1.17,1.23-2.37,2.47-3.6,3.7
	c-1.23,1.23-2.52,2.43-3.85,3.6c-1.33,1.17-2.63,2.19-3.9,3.05c-0.27,0.2-0.62,0.42-1.05,0.65c-0.43,0.23-0.87,0.47-1.3,0.7
	c-0.43,0.23-0.83,0.43-1.2,0.6c-0.37,0.17-0.58,0.29-0.65,0.35c-0.27,0.13-0.78,0.4-1.55,0.8c-0.77,0.4-1.22,0.7-1.35,0.9
	c-0.33,0.4-0.43,0.83-0.3,1.3c0.13,0.47,0.47,0.77,1,0.9c0.2,0.07,0.55,0.07,1.05,0s1.07-0.15,1.7-0.25c0.63-0.1,1.28-0.23,1.95-0.4
	c0.67-0.16,1.27-0.31,1.8-0.45c2.67-0.67,5.58-1.88,8.75-3.65c3.17-1.77,6.35-3.75,9.55-5.95c1.44-0.98,2.86-2.02,4.27-3.09
	c-1.44,2.62-2.34,5.48-2.67,8.59c-0.2,1.73,0.32,3.12,1.55,4.15c1.23,1.03,2.65,1.55,4.25,1.55c1.87-0.07,3.67-0.48,5.4-1.25
	c1.73-0.77,3.4-1.62,5-2.55c3.33-1.87,6.4-3.92,9.2-6.15c2.46-1.96,4.87-3.98,7.23-6.02c-0.24,0.36-0.49,0.71-0.73,1.07
	c-0.73,1.07-1.43,2.1-2.1,3.1c-0.67,1-1.33,2.07-2,3.2c-0.33,0.54-0.72,1.18-1.15,1.95c-0.43,0.77-0.75,1.55-0.95,2.35
	c-0.2,0.8-0.18,1.53,0.05,2.2c0.23,0.67,0.82,1.17,1.75,1.5c0.8,0.27,1.5,0.23,2.1-0.1c0.6-0.33,1.17-0.73,1.7-1.2
	c0.67-0.6,1.32-1.2,1.95-1.8c0.63-0.6,1.28-1.17,1.95-1.7c1.73-1.53,3.47-3,5.2-4.4c1.26-1.01,2.51-2.03,3.77-3.04
	c0.39-0.23,0.77-0.46,1.18-0.71c2.37-1.43,4.78-3.02,7.25-4.75c2.47-1.73,4.53-3.37,6.2-4.9c-0.2,1.73-0.42,3.42-0.65,5.05
	c-0.23,1.63-0.48,3.22-0.75,4.75c-0.2,1.54-0.82,3.07-1.85,4.6c-1.04,1.53-2.18,2.77-3.45,3.7c-1.47,1.13-3.17,1.77-5.1,1.9
	c-1.07,0-2.03-0.13-2.9-0.4c-0.13,0-0.53-0.12-1.2-0.35c-0.67-0.23-1.03-0.28-1.1-0.15c-0.07,0.13,0.02,0.32,0.25,0.55
	c0.23,0.23,0.53,0.45,0.9,0.65c0.37,0.2,0.72,0.4,1.05,0.6c0.33,0.2,0.54,0.3,0.6,0.3c0.87,0.54,1.97,0.9,3.3,1.1
	c2.47,0.2,4.97-0.33,7.5-1.6c2.13-1.13,3.9-2.73,5.3-4.8c1.4-2.07,2.43-4.27,3.1-6.6c0.33-1.33,0.68-2.65,1.05-3.95
	c0.37-1.3,0.75-2.65,1.15-4.05c0.4-1.27,0.85-2.53,1.35-3.8c0.5-1.27,1.08-2.47,1.75-3.6c0.33-0.6,0.78-1.13,1.35-1.6
	c0.57-0.47,1.1-0.95,1.6-1.45s0.92-1.05,1.25-1.65c0.33-0.6,0.46-1.27,0.4-2c-0.07-0.93-0.43-1.73-1.1-2.4c-0.67-0.67-1.47-1-2.4-1
	c-1.07,0-2.05,0.27-2.95,0.8c-0.9,0.54-1.72,1.17-2.45,1.9c-0.73,0.93-1.4,1.85-2,2.75c-0.6,0.9-1.2,1.82-1.8,2.75
	c-1.73,2.47-4.02,4.97-6.85,7.5c-2.83,2.53-5.6,4.85-8.3,6.95c-0.14,0.11-0.27,0.21-0.42,0.32c-0.87,0.56-1.77,1.11-2.63,1.68
	c-2.4,1.57-4.77,3.19-7.1,4.85c2-2.87,4.03-5.68,6.1-8.45c2.07-2.77,4.17-5.55,6.3-8.35c2.53-3.4,5.05-6.78,7.55-10.15
	c2.5-3.37,4.98-6.78,7.45-10.25c0.53-0.73,1.58-2.23,3.15-4.5c1.57-2.27,3.35-4.9,5.35-7.9c2.73-0.33,5.55-0.7,8.45-1.1
	c2.9-0.4,5.88-0.83,8.95-1.3c6.2-0.93,12.05-1.85,17.55-2.75s11.18-1.82,17.05-2.75c2.2-0.4,4.18-0.75,5.95-1.05
	c1.77-0.3,3.25-0.58,4.45-0.85c2.6-0.53,3.87-0.83,3.8-0.9C217.38,19.33,216.08,19.33,213.48,19.53z M91.73,73.93
	c0.37-0.53,0.88-1.17,1.55-1.9c2.8-3,5.63-5.83,8.5-8.5c2.87-2.67,6.07-4.83,9.6-6.5c-0.8,2.33-1.92,4.5-3.35,6.5
	c-1.43,2-3.07,3.8-4.9,5.4c-1.83,1.6-3.83,2.98-6,4.15c-2.17,1.17-4.38,2.05-6.65,2.65C90.95,75.06,91.36,74.46,91.73,73.93z"/>
</svg>
