<?xml version="1.0" encoding="UTF-8"?>
<svg width="155px" height="308px" viewBox="0 0 155 308" version="1.1" xmlns="http://www.w3.org/2000/svg" xmlns:xlink="http://www.w3.org/1999/xlink">
    <title>Phone</title>
    <defs>
        <polygon id="path-1" points="0 307.45583 154.946968 307.45583 154.946968 0.446883474 0 0.446883474"></polygon>
        <rect id="path-3" x="1.5" y="2.5" width="153.5" height="305" rx="35"></rect>
    </defs>
    <g id="Page-1" stroke="none" stroke-width="1" fill="none" fill-rule="evenodd">
        <g id="3-copy" transform="translate(-137.000000, -232.000000)">
            <g id="Phone" transform="translate(137.000000, 232.000000)">
                <g id="Group" opacity="0.5">
                    <g id="Phone">
                        <polygon id="Stroke-1" stroke="#EC1964" stroke-width="0.5" points="153.4995 278.5 153.5005 278.5 153.5005 276.5 153.4995 276.5"></polygon>
                        <g id="Group-15">
                            <path d="M1.04925965,93.8455296 C0.717488602,93.8455296 0.449554262,94.1118722 0.449554262,94.4416722 L0.449554262,114.699794 C0.449554262,115.029594 0.717488602,115.295936 1.04925965,115.295936 C1.38013158,115.295936 1.64806592,115.029594 1.64806592,114.699794 L1.64806592,94.4416722 C1.64806592,94.1118722 1.38013158,93.8455296 1.04925965,93.8455296 Z" id="Stroke-2" stroke="#EC1964" stroke-width="0.5"></path>
                            <mask id="mask-2" fill="white">
                                <use xlink:href="#path-1"></use>
                            </mask>
                            <g id="Clip-5"></g>
                            <polygon id="Stroke-4" stroke="#EC1964" stroke-width="0.5" mask="url(#mask-2)" points="153.298003 32.9951944 153.298902 32.9951944 153.298902 30.7607771 153.298003 30.7607771"></polygon>
                            <path d="M153.897709,71.5018028 C153.566837,71.5018028 153.298902,71.94958 153.298902,72.5037155 L153.298902,106.548192 C153.298902,107.102328 153.566837,107.550105 153.897709,107.550105 C154.22948,107.550105 154.497414,107.102328 154.497414,106.548192 L154.497414,72.5037155 C154.497414,71.94958 154.22948,71.5018028 153.897709,71.5018028 Z" id="Stroke-6" stroke="#EC1964" stroke-width="0.5" mask="url(#mask-2)"></path>
                            <path d="M1.04925965,65.0957282 C0.717488602,65.0957282 0.449554262,65.3549206 0.449554262,65.6748892 L0.449554262,85.3708314 C0.449554262,85.6908 0.717488602,85.9499924 1.04925965,85.9499924 C1.38013158,85.9499924 1.64806592,85.6908 1.64806592,85.3708314 L1.64806592,65.6748892 C1.64806592,65.3549206 1.38013158,65.0957282 1.04925965,65.0957282 Z" id="Stroke-7" stroke="#EC1964" stroke-width="0.5" mask="url(#mask-2)"></path>
                            <polyline id="Stroke-8" stroke="#EC1964" stroke-width="0.5" mask="url(#mask-2)" points="150.301275 276.249064 153.298003 276.249064 153.298003 32.9951944 150.301275 32.9951944"></polyline>
                            <path d="M150.301275,284.368043 C150.301275,295.227311 141.445056,304.030915 130.520887,304.030915 L24.4260813,304.030915 C13.5019127,304.030915 4.64569374,295.227311 4.64569374,284.368043 L4.64569374,278.483481 L1.64806592,278.483481 L1.64806592,284.207165 C1.64806592,296.800341 11.9176835,307.008947 24.5861226,307.008947 L130.359947,307.008947 C143.028386,307.008947 153.298003,296.800341 153.298003,284.207165 L153.298003,278.483481 L150.301275,278.483481 L150.301275,284.368043 Z" id="Stroke-9" stroke="#EC1964" stroke-width="0.5" mask="url(#mask-2)"></path>
                            <polyline id="Stroke-10" stroke="#EC1964" stroke-width="0.5" mask="url(#mask-2)" points="1.64806592 32.9951944 1.64806592 42.7721111 1.64806592 53.6063541 1.64806592 65.6748892 1.64806592 85.3708314 1.64806592 94.4416722 1.64806592 114.699794 1.64806592 276.249064 4.64569374 276.249064"></polyline>
                            <polyline id="Stroke-11" stroke="#EC1964" stroke-width="0.5" mask="url(#mask-2)" points="1.64806592 276.249064 1.64806592 278.483481 4.64569374 278.483481"></polyline>
                            <path d="M4.64569374,23.8340832 C4.64569374,12.9748148 13.5019127,4.17121035 24.4260813,4.17121035 L130.520887,4.17121035 C141.445056,4.17121035 150.301275,12.9748148 150.301275,23.8340832 L150.301275,30.7607771 L153.298003,30.7607771 L153.298003,23.6955493 C153.298003,11.102373 143.028386,0.893766949 130.359947,0.893766949 L24.5861226,0.893766949 C11.9176835,0.893766949 1.64806592,11.102373 1.64806592,23.6955493 L1.64806592,30.7607771 L4.64569374,30.7607771 L4.64569374,23.8340832 Z" id="Stroke-12" stroke="#EC1964" stroke-width="0.5" mask="url(#mask-2)"></path>
                            <line x1="1.64806592" y1="30.7607771" x2="1.64806592" y2="32.9951944" id="Stroke-13" stroke="#EC1964" stroke-width="0.5" mask="url(#mask-2)"></line>
                            <path d="M1.04925965,42.4534832 C0.717488602,42.4534832 0.449554262,42.5964859 0.449554262,42.7716642 L0.449554262,53.6059072 C0.449554262,53.7819793 0.717488602,53.9240882 1.04925965,53.9240882 C1.38013158,53.9240882 1.64806592,53.7819793 1.64806592,53.6059072 L1.64806592,42.7716642 C1.64806592,42.5964859 1.38013158,42.4534832 1.04925965,42.4534832 Z" id="Stroke-14" stroke="#EC1964" stroke-width="0.5" mask="url(#mask-2)"></path>
                        </g>
                    </g>
                </g>
                <mask id="mask-4" fill="white">
                    <use xlink:href="#path-3"></use>
                </mask>
                <g id="Mask"></g>
            </g>
        </g>
    </g>
</svg>