<?xml version="1.0" encoding="UTF-8"?>
<svg width="20px" height="20px" viewBox="0 0 20 20" version="1.1" xmlns="http://www.w3.org/2000/svg" xmlns:xlink="http://www.w3.org/1999/xlink">
    <title>icons/reddit</title>
    <defs>
        <filter color-interpolation-filters="auto" id="filter-1">
            <feColorMatrix in="SourceGraphic" type="matrix" values="0 0 0 0 0.977260 0 0 0 0 0.919074 0 0 0 0 1.000000 0 0 0 1.000000 0"></feColorMatrix>
        </filter>
        <filter color-interpolation-filters="auto" id="filter-2">
            <feColorMatrix in="SourceGraphic" type="matrix" values="0 0 0 0 0.933948 0 0 0 0 0.768293 0 0 0 0 1.000000 0 0 0 1.000000 0"></feColorMatrix>
        </filter>
    </defs>
    <g id="Marketing---Stage" stroke="none" stroke-width="1" fill="none" fill-rule="evenodd">
        <g id="10desktop" transform="translate(-791.000000, -711.000000)">
            <g id="Social-Icons" transform="translate(627.000000, 710.000000)" filter="url(#filter-1)">
                <g id="icons/reddit" transform="translate(162.000000, 0.000000)" filter="url(#filter-2)">
                    <g>
                        <rect id="Rectangle" x="0" y="0" width="24" height="24"></rect>
                        <path d="M13.865,13.79 C13.9358333,13.86 13.9358333,13.9741667 13.865,14.045 C13.4775,14.43 12.87,14.6175 12.0058333,14.6175 L11.9991667,14.6158333 L11.9925,14.6175 C11.1291667,14.6175 10.5208333,14.43 10.1333333,14.0441667 C10.0625,13.9741667 10.0625,13.86 10.1333333,13.79 C10.2033333,13.72 10.3183333,13.72 10.3891667,13.79 C10.705,14.1041667 11.2291667,14.2575 11.9925,14.2575 L11.9991667,14.2591667 L12.0058333,14.2575 C12.7683333,14.2575 13.2925,14.1041667 13.6091667,13.79 C13.68,13.72 13.795,13.72 13.865,13.79 Z M10.9983333,11.775 C10.9983333,11.3525 10.6533333,11.0091667 10.23,11.0091667 C9.80583333,11.0091667 9.46083333,11.3525 9.46083333,11.775 C9.46083333,12.1966667 9.80583333,12.5400015 10.23,12.5400015 C10.6533333,12.5408333 10.9983333,12.1975 10.9983333,11.775 Z M22,11 C22,16.5225 17.5225,21 12,21 C6.4775,21 2,16.5225 2,11 C2,5.4775 6.4775,1 12,1 C17.5225,1 22,5.4775 22,11 Z M17.8333333,10.8925 C17.8333333,10.1833333 17.2541667,9.60666667 16.5416667,9.60666667 C16.1941667,9.60666667 15.8791667,9.74583333 15.6466667,9.96916667 C14.7666667,9.39 13.5758333,9.02166667 12.2583333,8.97416667 L12.9791667,6.70416667 L14.9316667,7.16166667 L14.9291667,7.19 C14.9291667,7.77 15.4033333,8.24166667 15.9858333,8.24166667 C16.5683333,8.24166667 17.0416667,7.77 17.0416667,7.19 C17.0416667,6.61 16.5683333,6.13833333 15.9858333,6.13833333 C15.5383333,6.13833333 15.1575,6.4175 15.0033333,6.80833333 L12.8991667,6.315 C12.8075,6.2925 12.7133333,6.34583333 12.685,6.43583333 L11.8808333,8.9675 C10.5008333,8.98416667 9.25166667,9.35583333 8.3325,9.95166667 C8.10166667,9.73916667 7.79583333,9.60583333 7.4575,9.60583333 C6.74583333,9.60666667 6.16666667,10.1833333 6.16666667,10.8925 C6.16666667,11.3641667 6.42583333,11.7725 6.80666667,11.9966667 C6.78166667,12.1333333 6.765,12.2725 6.765,12.4133333 C6.765,14.3141667 9.1025,15.8608333 11.9758333,15.8608333 C14.8491667,15.8608333 17.1866667,14.3141667 17.1866667,12.4133333 C17.1866667,12.28 17.1725,12.1491667 17.15,12.02 C17.555,11.8025 17.8333333,11.3816667 17.8333333,10.8925 L17.8333333,10.8925 Z M13.7733333,11.01 C13.3491667,11.01 13.005,11.3533333 13.005,11.7758333 C13.005,12.1975 13.35,12.5408333 13.7733333,12.5408333 C14.1966667,12.5408333 14.5416667,12.1975 14.5416667,11.7758333 C14.5416667,11.3533333 14.1975,11.01 13.7733333,11.01 Z" id="Shape" fill="#000000" fill-rule="nonzero"></path>
                    </g>
                </g>
            </g>
        </g>
    </g>
</svg>