<?xml version="1.0" encoding="UTF-8"?>
<svg width="16px" height="14px" viewBox="0 0 16 14" version="1.1" xmlns="http://www.w3.org/2000/svg" xmlns:xlink="http://www.w3.org/1999/xlink">
    <title>icons/reddit</title>
    <g id="Components" stroke="none" stroke-width="1" fill="none" fill-rule="evenodd">
        <g id="Assets" transform="translate(-705.000000, -1663.000000)">
            <g id="Group" transform="translate(704.000000, 1661.000000)">
                <rect id="ViewBox" x="0" y="0" width="18" height="18"></rect>
                <path d="M11.3428125,11.3272518 C10.7541563,11.3272518 10.2595078,10.8609403 10.2595078,10.285983 C10.2595078,9.71102573 10.7541563,9.22933078 11.3428125,9.22933078 C11.9314688,9.22933078 12.4088906,9.71102573 12.4088906,10.285983 C12.4088906,10.8609403 11.9314688,11.3272518 11.3428125,11.3272518 M11.5928438,13.3482554 C11.0445469,13.8833118 10.1989688,14.1433886 9.007875,14.1433886 C9.00541406,14.1433886 9.00246094,14.1429079 8.99950781,14.1429079 C8.99704688,14.1429079 8.99409375,14.1433886 8.99114062,14.1433886 C7.80004688,14.1433886 6.95496094,13.8833118 6.40715625,13.3482554 C6.23882813,13.1838445 6.23882813,12.9179989 6.40715625,12.7540688 C6.57499219,12.5901387 6.84717187,12.5901387 7.0155,12.7540688 C7.3935,13.1232721 8.03974219,13.3030665 8.99114062,13.3030665 C8.99409375,13.3030665 8.99704688,13.3035472 8.99950781,13.3035472 C9.00246094,13.3035472 9.00541406,13.3030665 9.007875,13.3030665 C9.95927344,13.3030665 10.6060078,13.1232721 10.9845,12.7540688 C11.1528281,12.589658 11.4250078,12.5901387 11.5928438,12.7540688 C11.7606797,12.9184797 11.7606797,13.1843253 11.5928438,13.3482554 M5.59110938,10.285983 C5.59110938,9.71150649 6.08477344,9.22933078 6.6729375,9.22933078 C7.26159375,9.22933078 7.73901562,9.71150649 7.73901562,10.285983 C7.73901562,10.8609403 7.26159375,11.3272518 6.6729375,11.3272518 C6.08477344,11.3272518 5.59110938,10.8609403 5.59110938,10.285983 M14.2486875,3.65282216 C14.6473594,3.65282216 14.9717109,3.96962554 14.9717109,4.35853894 C14.9717109,4.74793308 14.6473594,5.06473645 14.2486875,5.06473645 C13.8500156,5.06473645 13.5256641,4.74793308 13.5256641,4.35853894 C13.5256641,3.96962554 13.8500156,3.65282216 14.2486875,3.65282216 M16.875,9.14231802 C16.875,8.12268226 16.0259766,7.29341697 14.9820469,7.29341697 C14.5302187,7.29341697 14.1153047,7.44917462 13.7894766,7.70828998 C12.6352969,6.9996888 11.1705469,6.57279745 9.60046875,6.48241955 L10.4194688,3.9532806 L12.6702422,4.47103058 C12.7293047,5.27145186 13.4144297,5.90505861 14.2486875,5.90505861 C15.1213359,5.90505861 15.8315625,5.21136018 15.8315625,4.35853894 C15.8315625,3.50619845 15.1213359,2.8125 14.2486875,2.8125 C13.638375,2.8125 13.1077969,3.15189785 12.8434922,3.64753409 L10.2280078,3.04613648 C10.0089844,2.99565946 9.7875,3.11872724 9.71957812,3.32832705 L8.70271875,6.46751681 C7.01107031,6.50789843 5.4208125,6.93623198 4.18197656,7.68617624 C3.86057812,7.44052142 3.45649219,7.29341697 3.01795313,7.29341697 C1.97402344,7.29341697 1.125,8.12268226 1.125,9.14231802 C1.125,9.77255965 1.44984375,10.3297298 1.94449219,10.6633588 C1.92382031,10.8099825 1.91299219,10.9575677 1.91299219,11.1070758 C1.91299219,12.3815004 2.67145313,13.5669892 4.04859375,14.4448085 C5.36864063,15.2865729 7.11590625,15.75 8.96800781,15.75 C10.8201094,15.75 12.567375,15.2865729 13.8874219,14.4448085 C15.2645625,13.5669892 16.0230234,12.3815004 16.0230234,11.1070758 C16.0230234,10.9710283 16.0136719,10.8359421 15.9964453,10.7018175 C16.5240703,10.3734765 16.875,9.79707705 16.875,9.14231802" id="Reddit" fill="#D4FFF6"></path>
            </g>
        </g>
    </g>
</svg>