<?xml version="1.0" encoding="UTF-8"?>
<svg width="15px" height="12px" viewBox="0 0 15 12" version="1.1" xmlns="http://www.w3.org/2000/svg" xmlns:xlink="http://www.w3.org/1999/xlink">
    <title>icons/sound off</title>
    <g id="Components" stroke="none" stroke-width="1" fill="none" fill-rule="evenodd">
        <g id="Assets" transform="translate(-705.000000, -2252.000000)">
            <g id="Group" transform="translate(704.000000, 2249.000000)">
                <rect id="ViewBox" x="0" y="0" width="18" height="18"></rect>
                <path d="M8.95696266,4.39919808 L8.9625,4.51275 L8.9625,13.4865 C8.9625,14.3743413 7.96665295,14.8728983 7.26243299,14.3854775 L7.17233787,14.3162603 L4.2815,11.8679423 L2.625,11.86875 C2.0646303,11.86875 1.60295071,11.4444284 1.54388396,10.8997079 L1.5375,10.78125 L1.5375,7.21875 C1.5375,6.6583803 1.96182162,6.19670071 2.5065421,6.13763396 L2.625,6.13125 L4.2815,6.13094228 L7.17226377,3.68305254 C7.84960134,3.10887868 8.87286649,3.54632017 8.95696266,4.39919808 Z M7.67282684,4.15284772 L7.60866213,4.19801026 L4.62441213,6.72626026 L4.61282821,6.73566289 C4.60101936,6.74481572 4.58858669,6.75320222 4.57560481,6.76074781 L4.62441213,6.72626026 C4.60066127,6.74638194 4.57493731,6.76265193 4.54800048,6.77513312 C4.53723701,6.78012334 4.52600577,6.7846222 4.51449608,6.78851707 C4.50275076,6.79248125 4.49100583,6.79574032 4.47915935,6.79835022 C4.47769616,6.7986777 4.47598446,6.79904197 4.47426802,6.7993932 L4.44442439,6.80411959 C4.43477945,6.80520851 4.42510338,6.80588033 4.41542482,6.80613743 L2.625,6.80625 C2.42584659,6.80625 2.25939134,6.94781108 2.22088929,7.13567818 L2.2125,7.21875 L2.2125,10.78125 C2.2125,10.9804034 2.35406108,11.1468587 2.54192818,11.1853607 L2.625,11.19375 L4.41542482,11.1931126 C4.42510338,11.1933697 4.43477945,11.1940415 4.44442439,11.1951304 L4.40625,11.19375 C4.43136979,11.19375 4.45584861,11.1964943 4.479403,11.2016995 C4.49306046,11.2039623 4.50682172,11.2079188 4.52035421,11.2127764 C4.52800345,11.2162734 4.5355263,11.2192899 4.54290979,11.2225635 C4.54866589,11.2243654 4.55416347,11.2269871 4.55960557,11.2297682 L4.58150012,11.2427595 C4.59198982,11.2491453 4.60210379,11.2560872 4.6118011,11.2635442 L4.62441213,11.2729897 L7.60893171,13.8014684 C7.85580793,14.0110659 8.22510103,13.8648276 8.28045455,13.5646379 L8.2875,13.4865 L8.2875,4.51275 C8.2875,4.18813713 7.9375886,4.00092562 7.67282684,4.15284772 Z M12.2376257,6.98043442 L12.2986485,7.02885146 L13.7475,8.47694228 L15.1963515,7.02885146 C15.3281534,6.89704951 15.5418466,6.89704951 15.6736485,7.02885146 C15.7866216,7.14182456 15.8027607,7.31496265 15.7220656,7.44512574 L15.6736485,7.50614854 L14.2255,8.95494228 L15.6736485,10.4038515 C15.8054505,10.5356534 15.8054505,10.7493466 15.6736485,10.8811485 C15.5606754,10.9941216 15.3875374,11.0102607 15.2573743,10.9295656 L15.1963515,10.8811485 L13.7475,9.43294228 L12.2986485,10.8811485 C12.1668466,11.0129505 11.9531534,11.0129505 11.8213515,10.8811485 C11.7083784,10.7681754 11.6922393,10.5950374 11.7729344,10.4648743 L11.8213515,10.4038515 L13.2695,8.95494228 L11.8213515,7.50614854 C11.6895495,7.37434659 11.6895495,7.16065341 11.8213515,7.02885146 C11.9343246,6.91587836 12.1074626,6.89973935 12.2376257,6.98043442 Z" id="Path" fill="#FF0063" fill-rule="nonzero"></path>
            </g>
        </g>
    </g>
</svg>