<?xml version="1.0" encoding="UTF-8"?>
<svg width="25px" height="25px" viewBox="0 0 25 25" version="1.1" xmlns="http://www.w3.org/2000/svg" xmlns:xlink="http://www.w3.org/1999/xlink">
    <title>Path 2</title>
    <defs>
        <linearGradient x1="0.0428973277%" y1="50.0056259%" x2="100.00211%" y2="50.0056259%" id="linearGradient-1">
            <stop stop-color="#000000" offset="0.793651%"></stop>
            <stop stop-color="#000000" offset="46.83%"></stop>
            <stop stop-color="#000000" offset="100%"></stop>
        </linearGradient>
    </defs>
    <g id="Symbols" stroke="none" stroke-width="1" fill="none" fill-rule="evenodd">
        <g id="assets/corner" fill="url(#linearGradient-1)" fill-rule="nonzero">
            <path d="M0.441176471,2.73529412 L0.447058824,2.97058824 C0.508823529,8.73823529 2.79411765,14.1676471 6.88529412,18.2558824 C10.9764706,22.3441176 16.4058824,24.6323529 22.1705882,24.6941176 L22.4029412,24.7 L22.4029412,24.9941176 L22.0205882,24.9852941 C16.2294118,24.8882353 10.7852941,22.5735294 6.67352941,18.4647059 C2.56176471,14.3558824 0.252941176,8.90882353 0.155882353,3.11764706 L0.152941176,3.11764706 L0.147058824,2.73529412 L0.441176471,2.73529412 Z M0.620588235,2.82941176 L0.770588235,2.83235294 C6.48823529,2.89411765 11.8705882,5.16176471 15.9235294,9.21764706 C19.9794118,13.2735294 22.2470588,18.6529412 22.3088235,24.3705882 L22.3117647,24.5205882 L22.1617647,24.5176471 C16.4441176,24.4558824 11.0617647,22.1882353 7.00882353,18.1323529 C2.95294118,14.0794118 0.685294118,8.69705882 0.620588235,2.97941176 L0.620588235,2.82941176 Z M0.917647059,3.12647059 C1.01764706,8.70882353 3.25,13.9588235 7.21470588,17.9235294 C11.1794118,21.8882353 16.4294118,24.1205882 22.0117647,24.2205882 C21.9117647,18.6382353 19.6794118,13.3882353 15.7147059,9.42352941 C11.7529412,5.45882353 6.50294118,3.22647059 0.917647059,3.12647059 Z M2.96470588,0.288235294 L3.03529412,0.294117647 C14.5,1.47058824 23.6705882,10.6411765 24.8441176,22.1058824 L24.85,22.1764706 L24.5588235,22.2058824 L24.5529412,22.1352941 C23.3941176,10.8117647 14.3323529,1.75 3.00588235,0.588235294 L2.93529412,0.582352941 L2.96470588,0.288235294 Z M10.85,11.5117647 C12.0058824,11.5117647 12.9411765,12.45 12.9411765,13.6029412 C12.9411765,14.7588235 12.0058824,15.6941176 10.85,15.6941176 C9.69411765,15.6941176 8.75882353,14.7588235 8.75882353,13.6029412 C8.75882353,12.4470588 9.69705882,11.5117647 10.85,11.5117647 Z" id="Path-2"></path>
        </g>
    </g>
</svg>