<?xml version="1.0" encoding="UTF-8"?>
<svg width="16px" height="13px" viewBox="0 0 16 13" version="1.1" xmlns="http://www.w3.org/2000/svg" xmlns:xlink="http://www.w3.org/1999/xlink">
    <title>icons/twitter</title>
    <g id="Components" stroke="none" stroke-width="1" fill="none" fill-rule="evenodd">
        <g id="Assets" transform="translate(-705.000000, -1584.000000)">
            <g id="Group" transform="translate(704.000000, 1581.000000)">
                <rect id="ViewBox" x="0" y="0" width="18" height="18"></rect>
                <path d="M16.9383851,4.46727529 C16.3521513,4.71611145 15.721589,4.88438571 15.0601461,4.96018064 C15.7355351,4.57262546 16.2540307,3.95959232 16.4980872,3.22881486 C15.8665287,3.58729147 15.1662359,3.84756838 14.4216145,3.98819418 C13.8249211,3.37992801 12.9752061,3 12.0348413,3 C10.228823,3 8.76498199,4.40101432 8.76498199,6.12951991 C8.76498199,6.37454249 8.79387031,6.61336799 8.84965466,6.84265955 C6.13166193,6.71204441 3.7224754,5.46595681 2.10971006,3.57251385 C1.82829795,4.03491055 1.6669218,4.57262546 1.6669218,5.1460927 C1.6669218,6.2315332 2.24419019,7.18969542 3.12129944,7.75076853 C2.58537124,7.73456081 2.08131981,7.59393502 1.64052385,7.35939978 C1.64002578,7.37274731 1.64002578,7.38561815 1.64002578,7.39896568 C1.64002578,8.91534083 2.76716845,10.1800196 4.26338435,10.4674683 C3.98894528,10.538973 3.70006205,10.5771088 3.4017154,10.5771088 C3.19102988,10.5771088 2.98632124,10.5575641 2.78659335,10.5213351 C3.20248559,11.7645625 4.41031634,12.6693346 5.84128447,12.6945996 C4.72211099,13.5340641 3.31206199,14.03412 1.77998472,14.03412 C1.51600522,14.03412 1.25601031,14.0193423 1,13.9907404 C2.44690652,14.8783514 4.16576174,15.3965217 6.01262211,15.3965217 C12.0273702,15.3965217 15.3161563,10.6276387 15.3161563,6.4922868 C15.3161563,6.35642798 15.3131679,6.22152255 15.3066929,6.08709382 C15.9457226,5.64614851 16.5000795,5.09508606 16.9383851,4.46727529" id="Twitter" fill="#D4FFF6"></path>
            </g>
        </g>
    </g>
</svg>