<?xml version="1.0" encoding="utf-8"?>
<!-- Generator: Adobe Illustrator 25.3.1, SVG Export Plug-In . SVG Version: 6.00 Build 0)  -->
<svg version="1.1" id="Layer_1" xmlns="http://www.w3.org/2000/svg" xmlns:xlink="http://www.w3.org/1999/xlink" x="0px" y="0px"
	 viewBox="0 0 25 21" style="enable-background:new 0 0 25 21;" xml:space="preserve">
<style type="text/css">
	.st0{filter:url(#filter-1);}
</style>
<filter  color-interpolation-filters="auto" id="filter-1">
	<feColorMatrix  in="SourceGraphic" type="matrix" values="0 0 0 0 0.000000 0 0 0 0 1.000000 0 0 0 0 0.786112 0 0 0 1.000000 0">
		</feColorMatrix>
</filter>
<g id="POC">
	<g id="POC1b---Wallet-Connect-Modal" transform="translate(-818.000000, -308.000000)">
		<g id="noun_Wallet_2998677" transform="translate(818.200000, 308.000000)" class="st0">
			<g>
				<g id="Group_1_" transform="translate(1.000000, 0.000000)">
					<g id="Path_1_">
						<g>
							<path d="M20.9,12.8c0,1.2,0,2.4,0,3.5c0,0.5,0,1,0,1.5c0,0.6-0.4,0.9-1,1c-1.9,0-3.9,0-5.8,0c-3.1,0-6.1,0-9.2,0
								c-1,0-2.1,0-3.1,0c-0.2,0-0.4,0-0.7,0c-0.5,0-1-0.4-1-0.9c-0.1-2.1,0-4.1,0-6.2c0-2.6,0-5.3,0-7.9c0-0.2,0-0.4,0-0.6
								c0-0.6,0.5-0.9,1-0.9c0.7,0,1.4,0,2,0c2.9,0,5.8,0,8.7,0c2.5,0,5,0,7.4,0c0.2,0,0.4,0,0.6,0c0.6,0,1,0.4,1,1
								c0,1.3,0,2.6,0,3.9c0,0.4,0,0.7,0,1.1c0,0.3,0.5,0.3,0.5,0c0-1.2,0-2.4,0-3.6c0-0.5,0-0.9,0-1.4c0-0.8-0.6-1.4-1.4-1.4
								c-1.9,0-3.8,0-5.8,0c-3.1,0-6.2,0-9.3,0c-1,0-2.1,0-3.1,0c-0.2,0-0.4,0-0.6,0c-0.8,0-1.4,0.6-1.5,1.4c-0.1,2.1,0,4.1,0,6.2
								c0,2.7,0,5.3,0,8c0,0.2,0,0.4,0,0.6c0,0.8,0.7,1.3,1.5,1.3c0.7,0,1.3,0,2,0c2.9,0,5.9,0,8.8,0c2.5,0,5,0,7.5,0
								c0.2,0,0.4,0,0.6,0c0.8,0,1.4-0.6,1.4-1.4c0-1.3,0-2.6,0-3.9c0-0.4,0-0.8,0-1.2C21.4,12.5,20.9,12.5,20.9,12.8L20.9,12.8z"/>
							<path d="M22.3,12.6c-1.4,0-2.8,0-4.2,0c-0.6,0-1.2,0-1.8,0c-1.1,0-2-0.8-2.1-1.9c-0.1-1.2,0.9-2.2,2.1-2.2c0.5,0,1.1,0,1.6,0
								c0.9,0,1.8,0,2.8,0c0.4,0,0.7,0,1.1,0c0.2,0,0.4,0,0.6,0c0.2,0,0.2,0.3,0.2,0.4c0,0.4,0,0.8,0,1.1c0,0.8,0,1.6,0,2.3
								C22.5,12.4,22.5,12.6,22.3,12.6c-0.3,0-0.3,0.5,0,0.5c0.4,0,0.6-0.3,0.6-0.6c0-0.1,0-0.1,0-0.2c0-0.4,0-0.8,0-1.2
								c0-0.8,0-1.6,0-2.4c0-0.4-0.3-0.7-0.7-0.7c-0.2,0-0.5,0-0.7,0c-0.9,0-1.9,0-2.8,0c-0.8,0-1.6,0-2.4,0c-0.3,0-0.7,0-1,0.1
								c-0.6,0.2-1.2,0.7-1.5,1.2c-0.6,1.2-0.2,2.8,1.1,3.5c0.7,0.3,1.4,0.3,2.1,0.3c1.7,0,3.4,0,5.1,0c0,0,0.1,0,0.1,0
								C22.6,13.1,22.6,12.6,22.3,12.6z"/>
						</g>
						<path d="M16.4,10.5c0,0.5-0.8,0.5-0.8,0S16.4,10,16.4,10.5c0,0.3,0.5,0.3,0.5,0c0-0.5-0.4-0.9-0.9-0.9c-0.5,0-0.9,0.4-0.9,0.9
							c0,0.5,0.4,0.9,0.9,0.9c0.5,0,0.9-0.4,0.9-0.9C16.9,10.2,16.4,10.2,16.4,10.5z"/>
					</g>
				</g>
			</g>
		</g>
	</g>
</g>
</svg>
