<?xml version="1.0" encoding="UTF-8"?>
<svg width="10px" height="12px" viewBox="0 0 10 12" version="1.1" xmlns="http://www.w3.org/2000/svg" xmlns:xlink="http://www.w3.org/1999/xlink">
    <title>logos/geno copy 4</title>
    <g id="Page-1" stroke="none" stroke-width="1" fill="none" fill-rule="evenodd">
        <g id="10" transform="translate(-370.000000, -627.000000)" fill="#00FFC8">
            <g id="Group-8" transform="translate(141.000000, 269.000000)">
                <g id="Group-14" transform="translate(0.000000, 252.000000)">
                    <g id="Group-13" transform="translate(222.000000, 0.000000)">
                        <g id="logos/geno-copy-4" transform="translate(7.000000, 106.000000)">
                            <path d="M6.3410912,3.0069553 L6.34086375,3.00659686 C6.31306398,3.05658809 6.20953938,3.11586831 6.00324587,3.23384151 C5.92408734,3.27882217 5.83117199,3.33197075 5.67846769,3.42337347 L5.67784405,3.42337347 L5.00003302,3.83025099 L4.99997432,3.83025099 L4.32216329,3.42337347 L4.32142226,3.42337347 C4.17141063,3.33340451 4.07643359,3.2789442 3.99727505,3.23390252 C3.79012312,3.1156929 3.68625368,3.05640505 3.65920228,3.00755016 L3.65920228,3.00659686 C3.63140251,2.95649123 3.63363295,2.83393455 3.63873948,2.58940842 C3.64022888,2.51511177 3.64206313,1.77505091 3.6430903,1.43025251 C3.64332508,1.37418302 3.66992159,1.32628143 3.71669476,1.29816279 L5.00003302,0.528130076 L6.28331258,1.29816279 C6.33008575,1.32628143 6.35668225,1.37418302 6.35708579,1.43025251 C6.35794421,1.77617962 6.35977845,2.51505075 6.36126786,2.58911099 C6.36625699,2.83315665 6.36872222,2.9561938 6.3410912,3.0069553 Z M5.53844167,4.6952556 L5.69468972,4.78844291 L5.69468972,4.78855731 C5.83535406,4.87292847 5.92638381,4.92517712 6.0026149,4.96849523 C6.21000161,5.08670485 6.31369496,5.14604608 6.34086375,5.19484759 L6.34086375,5.19580089 C6.36872222,5.24578449 6.36625699,5.3684632 6.36126786,5.61316474 L6.3600059,5.672689 C6.35914747,5.72374793 6.3190803,5.76492301 6.26984191,5.76492301 L3.73016543,5.76492301 C3.68103709,5.76492301 3.64080117,5.72374793 3.63988405,5.672689 L3.63873948,5.61316474 C3.63856339,5.60542391 3.63128512,5.17387491 3.65920228,5.19580089 C3.68706074,5.14580966 3.79051932,5.08652944 3.99687152,4.96867826 C4.07580261,4.92368997 4.16883535,4.87066342 4.32142226,4.77908529 L4.32216329,4.77908529 L4.73968074,4.52854953 C4.76307099,4.51424998 4.77648297,4.49017335 4.77648297,4.4619937 C4.77636557,4.43405047 4.76284354,4.40985944 4.7393946,4.39579631 L4.43416943,4.21395941 C4.41077918,4.2001327 4.38407262,4.2001327 4.36079976,4.21413482 L4.09597927,4.37303905 L4.09620671,4.37333649 C3.99801608,4.43231927 3.87913521,4.50024786 3.77940381,4.55714863 C3.49950586,4.71676212 3.35930375,4.79719805 3.26845009,4.96069339 L3.26845009,4.96170008 C3.17799996,5.12471496 3.18120621,5.2908338 3.18786084,5.62233933 C3.189519,5.70658847 3.19169807,5.80602945 3.19169807,6.00020591 C3.19169807,6.19420697 3.189519,6.29376997 3.18786084,6.3779581 C3.18120621,6.71018052 3.17788257,6.87647476 3.26845009,7.03955065 L3.26879493,7.03955065 C3.36050701,7.20386965 3.50048167,7.28400815 3.77974131,7.44345386 C3.8792526,7.49999619 3.99572695,7.56672742 4.09620671,7.62678554 L4.09597927,7.62719736 L4.54875084,7.89913288 L4.09597927,8.17106076 L4.09620671,8.17106076 C3.99801608,8.23022658 3.87913521,8.29808653 3.77940381,8.35510932 C3.49950586,8.5144864 3.35930375,8.5948003 3.26845009,8.75853207 L3.26845009,8.75942436 C3.17799996,8.92267566 3.18120621,9.08879449 3.18786084,9.42030002 C3.18877796,9.46737033 3.18992253,10.0030124 3.19066356,10.3865988 L2.72064278,10.10436 L2.72098761,10.1041236 L0.441883517,8.73607224 L0.441883517,6.00020591 L0.441883517,3.26404979 L2.72098761,1.89623483 L2.72064278,1.8959374 L3.19066356,1.6137596 C3.18992253,1.99204564 3.18877796,2.53238562 3.18786084,2.58023383 C3.18120621,2.91245624 3.17788257,3.07862846 3.26845009,3.24182638 L3.26879493,3.24170435 C3.36050701,3.40609199 3.50048167,3.48616947 3.77974131,3.64560756 C3.8792526,3.70227191 3.99572695,3.76894214 4.09620671,3.82918329 L4.09597927,3.82929768 C4.57763648,4.11856806 5.05706326,4.40640467 5.53844167,4.6952556 Z M5.67784405,8.57693158 L5.67846769,8.57693158 C5.82847932,8.66695393 5.92363244,8.72141424 6.0026149,8.7663339 C6.21000161,8.88466554 6.31369496,8.94383136 6.34086375,8.99268626 L6.34086375,8.99352516 C6.36872222,9.04363079 6.36625699,9.1663095 6.36126786,9.410828 C6.35977845,9.48405695 6.35794421,10.2129756 6.35708579,10.5699839 C6.35668225,10.6259314 6.33008575,10.674077 6.28354003,10.7019592 L5.00003302,11.4721674 L3.71669476,10.7019592 C3.66992159,10.674077 3.64320769,10.6259314 3.64292155,10.5699839 C3.64194573,10.2129756 3.64022888,9.48423236 3.63873948,9.41124745 C3.63363295,9.16720179 3.63140251,9.04405024 3.65891614,8.99334213 L3.65920228,8.99352516 C3.68706074,8.94364833 3.79051932,8.88424609 3.99687152,8.7663339 C4.07580261,8.72141424 4.16883535,8.66826567 4.32142226,8.57693158 L4.32216329,8.57693158 L5.00003302,8.16998543 L5.67784405,8.57693158 Z M9.88943191,2.93390938 L7.50010455,1.49978265 L7.49907004,1.49978265 L5.1095666,0.0658923301 L5.00003302,0 L4.89032335,0.0658923301 L2.5009373,1.49978265 L2.49996148,1.49978265 L0.11045804,2.93390938 L0,3.00010677 L0,3.13207446 L0,6.00020591 L0,8.86828398 L0,9.00001525 L0.11045804,9.06651007 L2.49996148,10.5004538 L2.5009373,10.5004538 L4.89032335,11.9343441 L5.00003302,12 L5.1095666,11.9343441 L7.49907004,10.5004538 L7.50010455,10.5004538 L9.88943191,9.06651007 L10,9.00001525 L10,8.86828398 L10,6.25187801 L10,5.76400784 L7.39646255,5.76400784 L7.39646255,6.23297972 L9.55823387,6.25187801 L9.55823387,8.73607224 L7.27901972,10.1041236 L7.27924717,10.10436 L6.80945383,10.3865988 C6.81008481,10.0030124 6.81128807,9.4669585 6.8121465,9.4198882 C6.81879379,9.08771916 6.82212477,8.92160796 6.73149855,8.75853207 L6.73109502,8.75853207 C6.63950032,8.59420544 6.49963572,8.51406694 6.22037608,8.35462886 L6.21206329,8.35009876 L6.21120487,8.35206638 L6.10814249,8.29069652 L6.10797374,8.29052111 L6.1029846,8.28772222 C6.03563125,8.24881218 5.96667843,8.20865142 5.90391068,8.17106076 L5.90413812,8.17106076 L5.53345253,7.94839959 L4.37283238,7.25725464 L4.37524625,7.25314399 L4.32216329,7.22115113 L4.32142226,7.22115113 C4.17141063,7.1313042 4.07643359,7.07690489 3.99727505,7.03174119 C3.96385517,7.01256073 3.65920228,6.84620547 3.65920228,6.80432113 C3.63140251,6.75445193 3.63363295,6.63177322 3.63873948,6.38707168 L3.63988405,6.32743302 C3.64080117,6.27648849 3.68103709,6.23543543 3.73016543,6.23543543 L6.26984191,6.23543543 C6.3190803,6.23543543 6.35914747,6.27648849 6.3600059,6.32743302 L6.36126786,6.38707168 C6.36625699,6.63088093 6.36872222,6.75379605 6.3410912,6.80474059 L6.34086375,6.80432113 C6.31306398,6.85442676 6.20953938,6.91359258 6.00324587,7.03156578 C5.92408734,7.07666847 5.83117199,7.129573 5.67846769,7.22115113 L5.67784405,7.22115113 L5.2560198,7.47455443 C5.23257819,7.48855655 5.2192836,7.51273995 5.2192836,7.5408052 C5.2192836,7.56893146 5.23298172,7.59312249 5.25625458,7.60711698 L5.56170719,7.7887861 C5.58498005,7.80284923 5.61157656,7.80284923 5.63484942,7.7887861 L5.90413812,7.62719736 L5.90391068,7.62678554 C6.00175647,7.56803154 6.12086479,7.5 6.22060352,7.44320981 C6.50044279,7.28335227 6.64070359,7.20303837 6.73149855,7.03955065 L6.73149855,7.03889478 C6.82212477,6.87558247 6.81879379,6.70928823 6.8121465,6.3779581 C6.81048834,6.29328951 6.80841932,6.19420697 6.80841932,6.00020591 C6.80841932,5.80597607 6.81048834,5.70647407 6.8121465,5.62228595 C6.81879379,5.28999489 6.82212477,5.12376166 6.73149855,4.96069339 L6.73109502,4.96069339 C6.63950032,4.79636677 6.49963572,4.71622827 6.22037608,4.5568512 C6.12063735,4.50024786 6.00428039,4.43357001 5.90391068,4.37333649 L5.90413812,4.37303905 L5.4511391,4.10122557 L5.90413812,3.82929768 L5.90391068,3.82918329 C6.00175647,3.77007848 6.12086479,3.70227191 6.22060352,3.64537114 C6.50044279,3.48563562 6.64070359,3.40531409 6.73149855,3.24182638 L6.73149855,3.24093408 C6.82212477,3.07767516 6.81879379,2.91144955 6.8121465,2.58005079 C6.81128807,2.53233224 6.81008481,1.99234307 6.80945383,1.61382061 L7.27924717,1.8959374 L7.27901972,1.89623483 L9.55823387,3.26404979 L9.55823387,4.12158813 L10,4.12158813 L10,3.13207446 L10,3.00010677 L9.88943191,2.93390938 Z" id="Stroke-1"></path>
                        </g>
                    </g>
                </g>
            </g>
        </g>
    </g>
</svg>