<?xml version="1.0" encoding="UTF-8"?>
<svg width="148px" height="170px" viewBox="0 0 148 170" version="1.1" xmlns="http://www.w3.org/2000/svg" xmlns:xlink="http://www.w3.org/1999/xlink">
    <title>Logo</title>
    <g id="Components" stroke="none" stroke-width="1" fill="none" fill-rule="evenodd">
        <g id="Assets" transform="translate(-703.000000, -1275.000000)" stroke="#00FFC8" stroke-width="0.5">
            <g id="Logo" transform="translate(704.000000, 1276.000000)">
                <path d="M92.5799315,42.0973742 L92.5766108,42.092356 C92.1707342,42.7922332 90.6592749,43.6221563 87.6473898,45.2737811 C86.4916751,45.9035104 85.135111,46.6475904 82.9056283,47.9272286 L82.8965231,47.9272286 L73.000482,53.6235138 L72.9996251,53.6235138 L63.103584,47.9272286 L63.0927649,47.9272286 C60.9025952,46.6676632 59.5159304,45.9052188 58.3602157,45.2746353 C55.3357976,43.6197006 53.8193037,42.7896708 53.4243533,42.1057023 L53.4243533,42.092356 C53.0184767,41.3908773 53.0510411,39.6750837 53.1255964,36.2517179 C53.1473417,35.2115647 53.1741216,24.8507127 53.1891184,20.0235352 C53.1925462,19.2385623 53.5808552,18.56794 54.2637434,18.1742791 L73.000482,7.39382107 L91.7363637,18.1742791 C92.4192519,18.56794 92.8075609,19.2385623 92.8134525,20.0235352 C92.8259855,24.8665146 92.8527654,35.2107106 92.8745107,36.2475538 C92.9473521,39.6641932 92.9833444,41.3867132 92.5799315,42.0973742 Z M80.8612484,65.7335784 L83.14247,67.0382008 L83.14247,67.0398023 C85.1961692,68.2209986 86.5252036,68.9524797 87.6381775,69.5589332 C90.6660235,71.2138679 92.1799465,72.0446451 92.5766108,72.7278662 L92.5766108,72.7412124 C92.9833444,73.4409829 92.9473521,75.1584848 92.8745107,78.5843063 L92.8560861,79.417646 C92.8435531,80.132471 92.2585723,80.7089222 91.5396919,80.7089222 L54.4604152,80.7089222 C53.7431416,80.7089222 53.155697,80.132471 53.1423071,79.417646 L53.1255964,78.5843063 C53.1230255,78.4759348 53.0167628,72.4342488 53.4243533,72.7412124 C53.8310869,72.0413352 55.341582,71.2114122 58.3543242,69.5614957 C59.5067181,68.9316596 60.8649961,68.1892879 63.0927649,66.907194 L63.103584,66.907194 L69.1993388,63.3996934 C69.5408365,63.1994997 69.7366513,62.8624269 69.7366513,62.4679118 C69.7349374,62.0767066 69.5375157,61.7380322 69.1951611,61.5411484 L64.7388737,58.9954318 C64.397376,58.8018578 64.0074602,58.8018578 63.6676765,58.9978875 L59.8012973,61.2225468 L59.804618,61.2267108 C58.3710348,62.0524698 56.635374,63.00347 55.1792957,63.8000808 C51.0927855,66.0346697 49.0458348,67.1607727 47.7193713,69.4497075 L47.7193713,69.4638012 C46.3987994,71.7460095 46.4456107,74.0716732 46.5427683,78.7127506 C46.5669773,79.8922386 46.5987919,81.2844123 46.5987919,84.0028828 C46.5987919,86.7188975 46.5669773,88.1127796 46.5427683,89.2914134 C46.4456107,93.9425272 46.3970855,96.2706466 47.7193713,98.5537091 L47.7244059,98.5537091 C49.0634024,100.854175 51.1070324,101.976114 55.1842232,104.208354 C56.6370879,104.999947 58.3376135,105.934184 59.804618,106.774998 L59.8012973,106.780763 L66.4117623,110.58786 L59.8012973,114.394851 L59.804618,114.394851 C58.3710348,115.223172 56.635374,116.173211 55.1792957,116.971531 C51.0927855,119.20281 49.0458348,120.327204 47.7193713,122.619449 L47.7193713,122.631941 C46.3987994,124.917459 46.4456107,127.243123 46.5427683,131.8842 C46.5561582,132.543185 46.5728689,140.042174 46.583688,145.412384 L39.7213845,141.46104 L39.7264192,141.457731 L6.45149935,122.305011 L6.45149935,84.0028828 L6.45149935,45.696697 L39.7264192,26.5472877 L39.7213845,26.5431236 L46.583688,22.5926344 C46.5728689,27.8886389 46.5561582,35.4533987 46.5427683,36.1232736 C46.4456107,40.7743874 46.3970855,43.1007985 47.7193713,45.3855693 L47.7244059,45.383861 C49.0634024,47.6852879 51.1070324,48.8063726 55.1842232,51.0385058 C56.6370879,51.8318068 58.3376135,52.7651899 59.804618,53.608566 L59.8012973,53.6101676 C66.8334927,57.6599529 73.8331236,61.6896654 80.8612484,65.7335784 Z M82.8965231,120.077042 L82.9056283,120.077042 C85.095798,121.337355 86.4850337,122.099799 87.6381775,122.728675 C90.6660235,124.385318 92.1799465,125.213639 92.5766108,125.897608 L92.5766108,125.909352 C92.9833444,126.610831 92.9473521,128.328333 92.8745107,131.751592 C92.8527654,132.776797 92.8259855,142.981658 92.8134525,147.979775 C92.8075609,148.763039 92.4192519,149.437078 91.7396844,149.827429 L73.000482,160.610343 L54.2637434,149.827429 C53.5808552,149.437078 53.1908323,148.763039 53.1866546,147.979775 C53.1724077,142.981658 53.1473417,132.779253 53.1255964,131.757464 C53.0510411,128.340825 53.0184767,126.616703 53.4201756,125.90679 L53.4243533,125.909352 C53.8310869,125.211077 55.341582,124.379445 58.3543242,122.728675 C59.5067181,122.099799 60.8649961,121.355719 63.0927649,120.077042 L63.103584,120.077042 L73.000482,114.379796 L82.8965231,120.077042 Z M144.385706,41.0747314 L109.501526,20.9969571 L109.486423,20.9969571 L74.5996723,0.922492621 L73.000482,0 L71.3987209,0.922492621 L36.5136845,20.9969571 L36.4994376,20.9969571 L1.61268738,41.0747314 L0,42.0014948 L0,43.8490425 L0,84.0028828 L0,124.155976 L0,126.000214 L1.61268738,126.931141 L36.4994376,147.006353 L36.5136845,147.006353 L71.3987209,167.080817 L73.000482,168 L74.5996723,167.080817 L109.486423,147.006353 L109.501526,147.006353 L144.385706,126.931141 L146,126.000214 L146,124.155976 L146,87.5262921 L146,80.6961098 L107.988353,80.6961098 L107.988353,87.2617161 L139.550215,87.5262921 L139.550215,122.305011 L106.273688,141.457731 L106.277009,141.46104 L99.4180259,145.412384 C99.4272382,140.042174 99.4448058,132.537419 99.4573388,131.878435 C99.5543893,127.228068 99.6030217,124.902511 98.2798789,122.619449 L98.2739873,122.619449 C96.9367047,120.318876 94.8946815,119.196937 90.8174907,116.964804 L90.6961241,116.901383 L90.6835911,116.928929 L89.1788804,116.069751 L89.1764166,116.067296 L89.1035752,116.028111 C88.1202162,115.483371 87.1135051,114.92112 86.1970959,114.394851 L86.2004166,114.394851 L80.788407,111.277594 L63.8433528,101.601565 L63.8785952,101.544016 L63.103584,101.096116 L63.0927649,101.096116 C60.9025952,99.8382587 59.5159304,99.0766685 58.3602157,98.4443767 C57.8722854,98.1758502 53.4243533,95.8468766 53.4243533,95.2604959 C53.0184767,94.562327 53.0510411,92.8448251 53.1255964,89.4190035 L53.1423071,88.5840623 C53.155697,87.8708388 53.7431416,87.296096 54.4604152,87.296096 L91.5396919,87.296096 C92.2585723,87.296096 92.8435531,87.8708388 92.8560861,88.5840623 L92.8745107,89.4190035 C92.9473521,92.832333 92.9833444,94.5531448 92.5799315,95.2663682 L92.5766108,95.2604959 C92.1707342,95.9619746 90.6592749,96.7902961 87.6473898,98.4419209 C86.4916751,99.0733586 85.135111,99.8140219 82.9056283,101.096116 L82.8965231,101.096116 L76.7378891,104.643762 C76.3956415,104.839792 76.2015406,105.178359 76.2015406,105.571273 C76.2015406,105.96504 76.4015331,106.303715 76.7413169,106.499638 L81.200925,109.043005 C81.5407088,109.239889 81.9290178,109.239889 82.2688015,109.043005 L86.2004166,106.780763 L86.1970959,106.774998 C87.6256445,105.952442 89.364626,104.999947 90.8208115,104.204937 C94.9064647,101.966932 96.9542724,100.842537 98.2798789,98.5537091 L98.2798789,98.5445269 C99.6030217,96.2581546 99.5543893,93.9300352 99.4573388,89.2914134 C99.4331298,88.1060531 99.402922,86.7188975 99.402922,84.0028828 C99.402922,81.283665 99.4331298,79.890637 99.4573388,78.7120032 C99.5543893,74.0599285 99.6030217,71.7326632 98.2798789,69.4497075 L98.2739873,69.4497075 C96.9367047,67.1491348 94.8946815,66.0271958 90.8174907,63.7959168 C89.3613053,63.00347 87.6624936,62.0699801 86.1970959,61.2267108 L86.2004166,61.2225468 L79.5866309,57.4171579 L86.2004166,53.6101676 L86.1970959,53.608566 C87.6256445,52.7810987 89.364626,51.8318068 90.8208115,51.035196 C94.9064647,48.7988987 96.9542724,47.6743973 98.2798789,45.3855693 L98.2798789,45.3730772 C99.6030217,43.0874522 99.5543893,40.7602938 99.4573388,36.1207111 C99.4448058,35.4526513 99.4272382,27.8928029 99.4180259,22.5934886 L106.277009,26.5431236 L106.273688,26.5472877 L139.550215,45.696697 L139.550215,57.7022338 L146,57.7022338 L146,43.8490425 L146,42.0014948 L144.385706,41.0747314 Z" id="Stroke-1"></path>
            </g>
        </g>
    </g>
</svg>