<?xml version="1.0" encoding="UTF-8"?>
<svg width="16px" height="12px" viewBox="0 0 16 12" version="1.1" xmlns="http://www.w3.org/2000/svg" xmlns:xlink="http://www.w3.org/1999/xlink">
    <title>icons/sound on</title>
    <g id="Components" stroke="none" stroke-width="1" fill="none" fill-rule="evenodd">
        <g id="Assets" transform="translate(-705.000000, -2185.000000)">
            <g id="Group" transform="translate(704.000000, 2182.000000)">
                <rect id="ViewBox" x="0" y="0" width="18" height="18"></rect>
                <path d="M7.17206829,3.68321837 L4.282,6.131 L2.625,6.13125 C2.0246039,6.13125 1.5375,6.6183539 1.5375,7.21875 L1.5375,10.78125 L1.54388396,10.8997079 C1.60295071,11.4444284 2.0646303,11.86875 2.625,11.86875 L4.282,11.868 L7.17233787,14.3170103 C7.8790508,14.9160854 8.9625,14.4137291 8.9625,13.48725 L8.9625,4.51275 C8.9625,3.58630693 7.87817504,3.08373482 7.17206829,3.68321837 Z M8.2875,4.51275 L8.2875,13.48725 C8.2875,13.8389139 7.87684009,14.0293221 7.60873623,13.8020525 L4.62441213,11.2737397 C4.56345177,11.2220943 4.48614631,11.19375 4.40625,11.19375 L2.625,11.19375 C2.3973961,11.19375 2.2125,11.0088539 2.2125,10.78125 L2.2125,7.21875 C2.2125,6.9911461 2.3973961,6.80625 2.625,6.80625 L4.40625,6.80625 C4.48614631,6.80625 4.56345177,6.77790574 4.62441213,6.72626026 L7.60866213,4.19801026 C7.87638095,3.97071764 8.2875,4.16126657 8.2875,4.51275 Z M11.3670766,5.83678638 C11.4663297,5.67895576 11.6746906,5.63157355 11.8324636,5.73082664 C12.8305411,6.35870501 13.4625,7.6130199 13.4625,9.00375 C13.4625,10.3957478 12.8294496,11.6497097 11.8308701,12.2701697 C11.6725468,12.3685427 11.4644533,12.3199433 11.3660803,12.1616201 C11.2677073,12.0032968 11.3163067,11.7952033 11.4746299,11.6968303 C12.265745,11.2052769 12.7875,10.1717717 12.7875,9.00375 C12.7875,7.83610149 12.2659935,6.801013 11.4730364,6.30217336 C11.3152633,6.20292027 11.2678236,5.99455942 11.3670766,5.83678638 Z M13.6188707,3.48221818 C13.7402529,3.34076189 13.9533255,3.32448859 14.0947818,3.44587073 C15.5705003,4.71216922 16.4625,6.76681349 16.4625,9.00225 C16.4625,11.2345844 15.5720816,13.2875289 14.098823,14.5546291 C13.9575049,14.6761721 13.7444139,14.6601411 13.6228709,14.518823 C13.5013279,14.3775049 13.5173589,14.1644139 13.658677,14.0428709 C14.9787425,12.907527 15.7875,11.0428593 15.7875,9.00225 C15.7875,6.95875568 14.9773442,5.09263163 13.6552182,3.95812927 C13.5137619,3.83674712 13.4974886,3.62367447 13.6188707,3.48221818 Z" id="Path" fill="#00FFC8" fill-rule="nonzero"></path>
            </g>
        </g>
    </g>
</svg>